/* XPM */
static char * accidentals_1bis_xpm[] = {
"7 19 2 1",
" 	c None",
".	c #000000",
"..     ",
"..     ",
"..     ",
"..     ",
"..     ",
"..     ",
"..     ",
"..     ",
"..     ",
"..     ",
"...... ",
".......",
"..  ...",
"..  ...",
"..  .. ",
".. ..  ",
"....   ",
"...    ",
" .     "};
