/* XPM */
static char * accidentals_1_xpm[] = {
"8 22 2 1",
" 	c None",
".	c #000000",
"     .  ",
"     .  ",
" ..  .  ",
" ..  .  ",
" ..  ...",
" .. ....",
" .......",
"........",
"......  ",
"...  .  ",
" ..  .  ",
" ..  .  ",
" ..  ...",
" .......",
"........",
"......  ",
".... .  ",
"...  .  ",
" ..  .  ",
" ..  .  ",
" ..     ",
"  .     "};
