/* XPM */
static char * accordion_accBayanbase_xpm[] = {
"16 22 2 1",
" 	c None",
".	c #000000",
"................",
"..            ..",
"..            ..",
"..            ..",
"..            ..",
"..            ..",
"................",
"................",
"..            ..",
"..            ..",
"..            ..",
"..            ..",
"..            ..",
"................",
"................",
"..            ..",
"..            ..",
"..            ..",
"..            ..",
"..            ..",
"................",
" ..............."};
