/* XPM */
static char * accordion_accSB_xpm[] = {
"24 18 2 1",
" 	c None",
".	c #000000",
"........................",
"..                    ..",
"..   .... ........    ..",
"..  ... .... ..  ...  ..",
".. ..     .. ..   ..  ..",
".. ..     .. ..   ..  ..",
".. ..        ..   ..  ..",
"..  ...      ..  ...  ..",
"..    ...    ......   ..",
"..      ..   ..   ..  ..",
"..       ..  ..   ... ..",
".. .     ..  ..    .. ..",
".. .     ..  ..    .. ..",
".. ..   ...  ..   ..  ..",
".. ....... ........ . ..",
"..                    ..",
"........................",
" ......................."};
