/* XPM */
static char * clefs_G_change_xpm[] = {
"15 43 2 1",
" 	c None",
".	c #000000",
"       ..      ",
"      ...      ",
"     .....     ",
"     ......    ",
"    .... ..    ",
"    ...   .    ",
"    ...   ..   ",
"    ..    ..   ",
"    ..    ..   ",
"    ..   ...   ",
"    ..   ...   ",
"     .   ..    ",
"     .  ...    ",
"     ......    ",
"     .....     ",
"      ...      ",
"     ....      ",
"    ....       ",
"   .....       ",
"   ... ..      ",
"  ...  ..      ",
" ....  ..      ",
" ...  ......   ",
" ..  ........  ",
"... .......... ",
"... ... ..  ...",
"... ..   .  ...",
" .  ..   .   ..",
" .. ..   ..  ..",
" ..  ... ..  ..",
"  ..  .. ..  ..",
"  ...    .. .. ",
"    ....  ...  ",
"     .......   ",
"          ..   ",
"   ...    ..   ",
"  .....   ..   ",
"  .....   ..   ",
"  .....   ..   ",
"  .....   .    ",
"   ...   ..    ",
"   .......     ",
"     ....      "};
