/* XPM */
static char * clefs_F_change_xpm[] = {
"15 17 2 1",
" 	c None",
".	c #000000",
"  .......      ",
" ...  ....     ",
"...     ... ...",
"....    .......",
".....    ......",
".....    ...   ",
".....    ...   ",
" ...     ......",
"        .......",
"        ... ...",
"       ....    ",
"      ....     ",
"     ....      ",
"    ....       ",
"   ...         ",
" ....          ",
"...            "};
