/* XPM */
static char * clefs_C_change_xpm[] = {
"15 22 2 1",
" 	c None",
".	c #000000",
"... .  ......  ",
"... . ..   ... ",
"... . .... ....",
"... . ....  ...",
"... . ...   ...",
"... .  .    ...",
"... . ..    ...",
"... . ..    ...",
"... . ...  ... ",
"... .........  ",
"... ...        ",
"... ...        ",
"... .........  ",
"... . ...  ... ",
"... . ..    ...",
"... . ..    ...",
"... .  .    ...",
"... . ...   ...",
"... . ....  ...",
"... . .... ....",
"... . ..   ... ",
"... .  ......  "};
