<?xml version="1.0" encoding="UTF-8" standalone="no"?>
<!DOCTYPE svg PUBLIC "-//W3C//DTD SVG 20010904//EN"
"http://www.w3.org/TR/2001/REC-SVG-20010904/DTD/svg10.dtd"
[
 <!ATTLIST svg
  xmlns:xlink CDATA #FIXED "http://www.w3.org/1999/xlink">
]>

<!-- clefs-G.svg -->
<!-- Gscore ("http://www.gscore.org/") -->

<svg xmlns="http://www.w3.org/2000/svg">
<g>

  <line x1="0" y1="30" x2="0" y2="34"
	style="stroke:black;" />

  <line x1="1" y1="27" x2="1" y2="37"
	style="stroke:black;" />

  <line x1="2" y1="25" x2="2" y2="32"
	style="stroke:black;" />

  <line x1="2" y1="35" x2="2" y2="38"
	style="stroke:black;" />

  <line x1="2" y1="46" x2="2" y2="48"
	style="stroke:black;" />

  <line x1="3" y1="24" x2="3" y2="29"
	style="stroke:black;" />

  <line x1="3" y1="38" x2="3" y2="39"
	style="stroke:black;" />

  <line x1="3" y1="45" x2="3" y2="50"
	style="stroke:black;" />

  <line x1="4" y1="22" x2="4" y2="27"
	style="stroke:black;" />

  <line x1="4" y1="39" x2="4" y2="40"
	style="stroke:black;" />

  <line x1="4" y1="44" x2="4" y2="51"
	style="stroke:black;" />

  <line x1="5" y1="7" x2="5" y2="10"
	style="stroke:black;" />

  <line x1="5" y1="21" x2="5" y2="26"
	style="stroke:black;" />

  <line x1="5" y1="30" x2="5" y2="35"
	style="stroke:black;" />

  <line x1="5" y1="40" x2="6" y2="40"
	style="stroke:black;" />

  <line x1="5" y1="44" x2="5" y2="52"
	style="stroke:black;" />

  <line x1="6" y1="41" x2="8" y2="41"
	style="stroke:black;" />

  <line x1="6" y1="4" x2="6" y2="17"
	style="stroke:black;" />

  <line x1="6" y1="20" x2="6" y2="24"
	style="stroke:black;" />

  <line x1="6" y1="29" x2="6" y2="36"
	style="stroke:black;" />

  <line x1="6" y1="44" x2="6" y2="49"
	style="stroke:black;" />

  <line x1="6" y1="51" x2="6" y2="52"
	style="stroke:black;" />

  <line x1="7" y1="2" x2="7" y2="9"
	style="stroke:black;" />

  <line x1="7" y1="15" x2="7" y2="23"
	style="stroke:black;" />

  <line x1="7" y1="28" x2="7" y2="31"
	style="stroke:black;" />

  <line x1="7" y1="36" x2="7" y2="37"
	style="stroke:black;" />

  <line x1="7" y1="45" x2="7" y2="49"
	style="stroke:black;" />

  <line x1="7" y1="52" x2="9" y2="52"
	style="stroke:black;" />

  <line x1="8" y1="1" x2="8" y2="7"
	style="stroke:black;" />

  <line x1="8" y1="17" x2="8" y2="24"
	style="stroke:black;" />

  <line x1="8" y1="28" x2="8" y2="30"
	style="stroke:black;" />

  <line x1="8" y1="37" x2="8" y2="38"
	style="stroke:black;" />

  <line x1="9" y1="0" x2="9" y2="5"
	style="stroke:black;" />

  <line x1="9" y1="16" x2="9" y2="21"
	style="stroke:black;" />

  <line x1="9" y1="23" x2="9" y2="30"
	style="stroke:black;" />

  <line x1="9" y1="37" x2="9" y2="38"
	style="stroke:black;" />

  <line x1="9" y1="41" x2="9" y2="42"
	style="stroke:black;" />

  <line x1="10" y1="1" x2="10" y2="4"
	style="stroke:black;" />

  <line x1="10" y1="14" x2="10" y2="19"
	style="stroke:black;" />

  <line x1="10" y1="27" x2="10" y2="33"
	style="stroke:black;" />

  <line x1="10" y1="41" x2="10" y2="42"
	style="stroke:black;" />

  <line x1="10" y1="51" x2="10" y2="52"
	style="stroke:black;" />

  <line x1="11" y1="2" x2="11" y2="5"
	style="stroke:black;" />

  <line x1="11" y1="12" x2="11" y2="18"
	style="stroke:black;" />

  <line x1="11" y1="27" x2="11" y2="38"
	style="stroke:black;" />

  <line x1="11" y1="41" x2="11" y2="42"
	style="stroke:black;" />

  <line x1="11" y1="50" x2="11" y2="51"
	style="stroke:black;" />

  <line x1="12" y1="4" x2="12" y2="16"
	style="stroke:black;" />

  <line x1="12" y1="28" x2="12" y2="30"
	style="stroke:black;" />

  <line x1="12" y1="35" x2="12" y2="44"
	style="stroke:black;" />

  <line x1="12" y1="47" x2="12" y2="50"
	style="stroke:black;" />

  <line x1="13" y1="6" x2="13" y2="14"
	style="stroke:black;" />

  <line x1="13" y1="28" x2="13" y2="31"
	style="stroke:black;" />

  <line x1="13" y1="40" x2="13" y2="49"
	style="stroke:black;" />

  <line x1="14" y1="28" x2="14" y2="31"
	style="stroke:black;" />

  <line x1="14" y1="40" x2="14" y2="41"
	style="stroke:black;" />

  <line x1="15" y1="29" x2="15" y2="33"
	style="stroke:black;" />

  <line x1="15" y1="39" x2="15" y2="40"
	style="stroke:black;" />

  <line x1="16" y1="30" x2="16" y2="39"
	style="stroke:black;" />

  <line x1="17" y1="31" x2="17" y2="38"
	style="stroke:black;" />

</g>
</svg> 
