/* XPM */
static char * clefs_tab_change_xpm[] = {
"15 32 2 1",
" 	c None",
".	c #000000",
"   ........ ...",
"  ..... ...... ",
"  ...   ...    ",
"  .... ...     ",
"   ... ...     ",
"       ...     ",
"       ...     ",
"       ..      ",
"   .. ...      ",
"    .... ..    ",
"     .. ...    ",
"        ...    ",
"       ....    ",
"       ....    ",
"      .....    ",
"     ......    ",
"     ......    ",
"    .......    ",
".  ..... .. .  ",
"....     ....  ",
"               ",
"     .....     ",
"   .........   ",
"  ... .. ...   ",
"  ......  ..   ",
"  ...... ...   ",
"     .......   ",
"     ..  ....  ",
"     ..   ...  ",
"     ..   ...  ",
" .. ........   ",
"  .........    "};
