/* XPM */
static char * common_time_xpm[] = {
"16 20 30 1",
" 	c None",
".	c #000000",
"+	c #7B7D7B",
"@	c #101410",
"#	c #000400",
"$	c #424542",
"%	c #9C9E9C",
"&	c #D6D7D6",
"*	c #212021",
"=	c #080C08",
"-	c #E7E3E7",
";	c #393C39",
">	c #6B696B",
",	c #DEDFDE",
"'	c #5A5D5A",
")	c #ADAAAD",
"!	c #525552",
"~	c #C6C7C6",
"{	c #EFEBEF",
"]	c #A5A2A5",
"^	c #CECFCE",
"/	c #7B797B",
"(	c #393839",
"_	c #B5B2B5",
":	c #737173",
"<	c #949694",
"[	c #8C8E8C",
"}	c #BDBEBD",
"|	c #292829",
"1	c #BDBABD",
"     .......    ",
"    +@#$++$@%   ",
"  &*.=&    -;>  ",
" -@..+    ,'*.) ",
" !...~    @...* ",
"&....{   ].....^",
"/....    +.....)",
"(....    _.....,",
"@....     $...: ",
".....           ",
".....           ",
"@....           ",
"(....           ",
"/....         <[",
"&....{        (,",
" !...~       }; ",
" -@..+      {*^ ",
"  &*.=&    ^|<  ",
"    .........   ",
"      }<++1     "};
