/* XPM */
static char * flags_d4_xpm[] = {
"9 22 2 1",
" 	c None",
".	c #000000",
"       ..",
"        .",
"        .",
"        .",
"       ..",
"      .. ",
"     ... ",
"..  .....",
"...... ..",
".....  ..",
"....   . ",
"...   .. ",
"..   ..  ",
"..  ...  ",
"......   ",
".....    ",
"....     ",
"...      ",
"..       ",
"..       ",
"..       ",
" .       "};
