/* XPM */
static char * flags_ugrace_xpm[] = {
"12 9 2 1",
" 	c None",
".	c #000000",
"          ..",
"         ...",
"        ... ",
"       ..   ",
"     ...    ",
"    ...     ",
"   ..       ",
" ...        ",
"...         "};
