/* XPM */
static char * flags_d5_xpm[] = {
"9 28 2 1",
" 	c None",
".	c #000000",
"       ..",
"        .",
"        .",
"       ..",
"       ..",
"      .. ",
"     ....",
"   ......",
" ..... ..",
" ....  ..",
" ...   ..",
" ..   .. ",
" .   ... ",
".. ......",
"...... ..",
".....  ..",
"....  .. ",
"...   .. ",
"..   ..  ",
".. ...   ",
".....    ",
".....    ",
"....     ",
"...      ",
"..       ",
"..       ",
"..       ",
" .       "};
