/* XPM */
static char * flags_u3_xpm[] = {
"7 22 2 1",
" 	c None",
".	c #000000",
" .     ",
"..     ",
"..     ",
"..     ",
"..     ",
"...    ",
"...    ",
"....   ",
" ....  ",
"  ...  ",
"   ... ",
"    .. ",
"     ..",
"     ..",
"      .",
"      .",
"      .",
"      .",
"      .",
"      .",
"     ..",
"     . "};
