/* XPM */
static char * four_xpm[] = {
"7 6 15 1",
" 	c #FFFFFF",
".	c #FEFEFE",
"+	c #838383",
"@	c #000000",
"#	c #B6B6B6",
"$	c #D7D7D7",
"%	c #F9F9F9",
"&	c #969696",
"*	c #A1A1A1",
"=	c #EFEFEF",
"-	c #4B4B4B",
";	c #6F6F6F",
">	c #FDFDFD",
",	c #9A9A9A",
"'	c #C5C5C5",
"  .+@  ",
"  #$@  ",
" %& @  ",
" *= @  ",
" -@@@; ",
"  >,@' "};
