/* XPM */
static char * noteheads_0slash_xpm[] = {
"20 14 2 1",
" 	c None",
".	c #000000",
"       .............",
"       .............",
"      ....      ... ",
"      ...      .... ",
"     ...       ...  ",
"     ...      ...   ",
"    ...      ....   ",
"   ....      ...    ",
"   ...      ....    ",
"  ....      ...     ",
"  ...      ...      ",
" ...       ...      ",
".............       ",
".............       "};
