/* XPM */
static char * noteheads_1cross_xpm[] = {
"11 8 2 1",
" 	c None",
".	c #000000",
" ...   ... ",
"..... .. ..",
"... ... .. ",
"  ..  ...  ",
"  ..  ...  ",
"... ... .. ",
"..... .. ..",
" ...   ... "};
