/* XPM */
static char * noteheads_2_xpm[] = {
"9 8 2 1",
" 	c None",
".	c #000000",
"   ......",
"  .......",
" ........",
".........",
".........",
"........ ",
".......  ",
" .....   "};
