/* XPM */
static char * p_24_xpm[] = {
"14 36 35 1",
" 	c None",
".	c #E7E3E7",
"+	c #737173",
"@	c #212021",
"#	c #4A4D4A",
"$	c #393C39",
"%	c #393839",
"&	c #7B797B",
"*	c #BDBABD",
"=	c #080C08",
"-	c #000000",
";	c #CECFCE",
">	c #848684",
",	c #A5A2A5",
"'	c #101410",
")	c #292829",
"!	c #5A5D5A",
"~	c #525552",
"{	c #B5B2B5",
"]	c #7B7D7B",
"^	c #DEDFDE",
"/	c #ADAAAD",
"(	c #000400",
"_	c #9C9E9C",
":	c #636163",
"<	c #C6C7C6",
"[	c #8C8E8C",
"}	c #424542",
"|	c #6B696B",
"1	c #D6D7D6",
"2	c #BDBEBD",
"3	c #313031",
"4	c #EFEBEF",
"5	c #525152",
"6	c #949694",
"  .+@#$%&.    ",
" *=-;  >-=,   ",
".=--.   '--,  ",
"&---)   !--=  ",
"~----{  ]---* ",
">----^  ]---/ ",
" !('_   :---< ",
"        '--=  ",
"       >---[  ",
"      *(--+   ",
"     ,(-)*    ",
"    :-}{      ",
"  ^)|1        ",
" 1'%~|{       ",
" @-----)2   | ",
">(}$-----@~@] ",
"$1  *(-----)  ",
"~    <3--(|4  ",
"     3$:~5@   ",
"     )---(*   ",
"     (---64   ",
"    ^---| $1  ",
"    6--} 2-1  ",
"    $-) ;'-1  ",
"   1-'.>(--1  ",
"   |(; )---1  ",
"  1-/  )---1  ",
"  %>   )---1  ",
" >!    )---1  ",
"<}     )---1  ",
"'|]]]]]'---|]>",
"[]]]]]]'---|]>",
"       )---1  ",
"       =---{  ",
"      >----%  ",
"    *3)~]]:%@]"};
