/* XPM */
static char * pedal_d_xpm[] = {
"9 12 2 1",
" 	c None",
".	c #000000",
"...      ",
"  ...    ",
"    ..   ",
"     ..  ",
"     ... ",
"    .....",
"   ..  ..",
"   ..  ..",
"   ..  ..",
"   ..  ..",
"   ... ..",
"    .... "};
