/* XPM */
static char * pedal_e_xpm[] = {
"6 8 2 1",
" 	c None",
".	c #000000",
" ...  ",
"....  ",
". ..  ",
". .   ",
"..    ",
"..  ..",
"..... ",
" ...  "};
