/* XPM */
static char * rests_6_xpm[] = {
"12 34 2 1",
" 	c None",
".	c #000000",
"      ..    ",
"     .... ..",
"     .... ..",
"     .......",
"      ... . ",
"          . ",
"         .. ",
"    ...  .. ",
"   ....  .. ",
"   .......  ",
"   .......  ",
"    ......  ",
"        ..  ",
"        ..  ",
"  ...   .   ",
"  .... ..   ",
"  .......   ",
"  .......   ",
"   ... ..   ",
"       .    ",
"      ..    ",
"....  ..    ",
"....  ..    ",
"........    ",
".......     ",
"  .. ..     ",
"     ..     ",
"     ..     ",
"     ..     ",
"    ..      ",
"    ..      ",
"    ..      ",
"    ..      ",
"   ...      "};
