/* XPM */
static char * rests_3bis_xpm[] = {
"7 13 2 1",
" 	c None",
".	c #000000",
"...    ",
"....  .",
".... ..",
".......",
" ... . ",
"    .. ",
"    .. ",
"    .  ",
"   ..  ",
"   ..  ",
"   ..  ",
"  ..   ",
"  ..   "};
