/* XPM */
static char * rests_1o_xpm[] = {
"20 6 2 1",
" 	c None",
".	c #000000",
"     ...........    ",
"     ...........    ",
"     ...........    ",
"     ...........    ",
"....................",
"...................."};
