/* XPM */
static char * scripts_trill_xpm[] = {
"17 16 2 1",
" 	c None",
".	c #000000",
"       ..        ",
"      ...        ",
"      ...        ",
"     ...         ",
"     ...         ",
"     ...         ",
"  .. ............",
"......... ... ...",
".   ...   ... ...",
"........  ... ...",
"    ....  ...    ",
"    ..... ..     ",
"    .. .....     ",
"    .. . ...     ",
"    .... ...     ",
"     .           "};
