/* XPM */
static char * scripts_coda_xpm[] = {
"14 20 2 1",
" 	c None",
".	c #000000",
"      ..      ",
"      ..      ",
"      ..      ",
"    ......    ",
"    ......    ",
"   .. .. ..   ",
"   .. .. ..   ",
"  ... .. ...  ",
"  ... .. ...  ",
"..............",
"..............",
"  ... .. ...  ",
"  ... .. ...  ",
"   .. .. ..   ",
"   .. .. ..   ",
"    ......    ",
"    ......    ",
"      ..      ",
"      ..      ",
"      ..      "};
