/* XPM */
static char * scripts_uportato_xpm[] = {
"8 7 2 1",
" 	c None",
".	c #000000",
"   ..   ",
"   ..   ",
"   ..   ",
"        ",
"        ",
"........",
"........"};
