/* XPM */
static char * scripts_dpedaltoe_xpm[] = {
"8 11 2 1",
" 	c None",
".	c #000000",
"   ..   ",
"   ..   ",
"  ....  ",
"  ....  ",
"  ....  ",
"  .  .  ",
" ..  .. ",
" ..  .. ",
" .    . ",
"..    ..",
"..    .."};
