/* XPM */
static char * scripts_reverseturn_xpm[] = {
"16 8 2 1",
" 	c None",
".	c #000000",
"  ...     ....  ",
" .....  ....... ",
"...... .........",
".. .. .....   ..",
"..   ..... .. ..",
"......... ......",
" .......  ..... ",
"  ....     ...  "};
