/* XPM */
static char * scripts_downmordent_xpm[] = {
"24 11 2 1",
" 	c None",
".	c #000000",
" ..                     ",
"..             ..       ",
"..  ..     .   ....     ",
"..  ...   ...  .....    ",
".. .....  .... ......  .",
"........................",
" .......................",
"  .  .....  ..... ..... ",
"      ...    ....  ...  ",
"       ..     ...   ..  ",
"               ..       "};
