/* XPM */
static char * scripts_trill_element_xpm[] = {
"11 6 2 1",
" 	c None",
".	c #000000",
"   ..      ",
"  ....   ..",
"  .....  ..",
" ......... ",
"..   ....  ",
"     ...   "};
