/* XPM */
static char * scripts_pralldown_xpm[] = {
"23 12 2 1",
" 	c None",
".	c #000000",
"     ..     .     ..   ",
"    ...    ...   ...   ",
".  .....  ....  .....  ",
"...................... ",
"...................... ",
" .....  ....  .....  ..",
"  ...   ...    ...   ..",
"  ..     .     ..    ..",
"                     ..",
"                     ..",
"                     ..",
"                     . "};
