/* XPM */
static char * scripts_downprall_xpm[] = {
"24 10 2 1",
" 	c None",
".	c #000000",
" ..                     ",
"..                      ",
"..  ..     .     ..     ",
"..  ...   ...    ...    ",
".. .....  ....  .....  .",
"........................",
" .......................",
"  .  .....  ....  ..... ",
"      ...    ...   ...  ",
"       ..     .     ..  "};
