/* XPM */
static char * solfa_2ro_xpm[] = {
"12 8 2 1",
" 	c None",
".	c #000000",
"............",
"............",
"............",
"............",
"........... ",
"........... ",
" .........  ",
"   ......   "};
