/* XPM */
static char * spcg_m_ypsfm_xpm[] = {
"32 32 3 1",
" 	c None",
".	c #FF0000",
"+	c #000000",
"               ...              ",
"                .               ",
"                .               ",
"                .               ",
"                .               ",
"                .               ",
"                .               ",
"                .               ",
"                .               ",
"                .               ",
"               ...              ",
"         +++++++++++++++++++++++",
"         +                      ",
"         +                      ",
"         +                      ",
"         +++++++++++++++++++++++",
"         +                      ",
"         +                      ",
"         +                      ",
"         +++++++++++++++++++++++",
"         +                      ",
"         +                      ",
"         +                      ",
"         +++++++++++++++++++++++",
"         +                      ",
"         +                      ",
"         +                      ",
"         +++++++++++++++++++++++",
"                                ",
"                                ",
"                                ",
"                                "};
