/* XPM */
static char * spcg_co_clef_xpm[] = {
"32 32 58 1",
" 	c None",
".	c #414141",
"+	c #C0C0C0",
"@	c #828282",
"#	c #000000",
"$	c #020202",
"%	c #050505",
"&	c #3A3A3A",
"*	c #848484",
"=	c #C8C8C8",
"-	c #787878",
";	c #070707",
">	c #7F7F7F",
",	c #B2B2B2",
"'	c #737373",
")	c #8E8E8E",
"!	c #525252",
"~	c #111111",
"{	c #2E2E2E",
"]	c #676767",
"^	c #ABABAB",
"/	c #6A6A6A",
"(	c #292929",
"_	c #D9D9D9",
":	c #181818",
"<	c #1A1A1A",
"[	c #7B7B7B",
"}	c #222222",
"|	c #1F1F1F",
"1	c #DDDDDD",
"2	c #434343",
"3	c #242424",
"4	c #5B5B5B",
"5	c #A4A4A4",
"6	c #353535",
"7	c #898989",
"8	c #989898",
"9	c #595959",
"0	c #161616",
"a	c #E9E9E9",
"b	c #575757",
"c	c #D4D4D4",
"d	c #3F3F3F",
"e	c #D1D1D1",
"f	c #EEEEEE",
"g	c #909090",
"h	c #CFCFCF",
"i	c #4D4D4D",
"j	c #A1A1A1",
"k	c #E2E2E2",
"l	c #303030",
"m	c #9A9A9A",
"n	c #CCCCCC",
"o	c #0A0A0A",
"p	c #373737",
"q	c #B9B9B9",
"r	c #464646",
"s	c #7D7D7D",
"                                ",
"                                ",
"                                ",
"                .+              ",
"               @#$              ",
"               %#&*             ",
"              =#- ;             ",
"              >#  #             ",
"              ,'  #             ",
"               > )#             ",
"               ! ~{             ",
"               #]#^             ",
"               /#(              ",
"              _:#               ",
"              <#.               ",
"             [#*}               ",
"             #| >+              ",
"            >#1*}#2*            ",
"            345#6#<#7           ",
"            #8>9 # 9#           ",
"            0a>> b  #           ",
"            >>cd_>> #           ",
"            edfe}g> ~           ",
"             hijkkldh           ",
"               m9:#n            ",
"              /^  o             ",
"             p##  -             ",
"             %##  #             ",
"             @#* qr             ",
"              .ds.              ",
"                                ",
"                                "};
