/* XPM */
static char * tb_autoupdown_xpm[] = {
"21 21 27 1",
" 	c None",
".	c #0B0B0B",
"+	c #000000",
"@	c #090909",
"#	c #FF0000",
"$	c #101010",
"%	c #030303",
"&	c #040404",
"*	c #0A0A0A",
"=	c #FF2000",
"-	c #171702",
";	c #1E1C00",
">	c #FFF600",
",	c #FF2800",
"'	c #FFCE00",
")	c #FF6500",
"!	c #FF9700",
"~	c #928C00",
"{	c #585400",
"]	c #7C7700",
"^	c #FF0300",
"/	c #FF1A00",
"(	c #FF0100",
"_	c #B8B100",
":	c #595601",
"<	c #FFB100",
"[	c #817D05",
"                     ",
"                     ",
"     .+@   #         ",
"    $+%++ ###        ",
"   #&++%+#####       ",
"   #@+%&   #         ",
"   #+*+    #         ",
"   #       #         ",
"   #       #         ",
"   #       #         ",
"   #       #         ",
"   #       #         ",
"   #       #         ",
"   #    +*+#         ",
"   =   &-;@#  >      ",
" #,')!~%{]&^> >  > >>",
"  /,( _+:]$ > > >   >",
"   <>>>@{[  > > >   >",
"  >   >  >  > >     >",
"   >>>>  >>>> >  >>> ",
"                     "};
