/* XPM */
static char *tb_doublewholerest[] = {
/* columns rows colors chars-per-pixel */
"21 21 6 1",
"  c black",
". c #030303030101",
"X c #060606060606",
"o c #080807070303",
"O c #131313131111",
"+ c None",
/* pixels */
"+++++++++++++++++++++",
"+++++++++++++++++++++",
"+++++++++++++++++++++",
"+++++++++++++++++++++",
"+++++++++++++++++++++",
"+++++++++++++++++++++",
"+++++++++++++++++++++",
"+++++++++++++++++++++",
"++++++.       +++++++",
"+++++++  oo .++++++++",
"+++++++.O  O.++++++++",
"+++++++  XX  ++++++++",
"++++++ . .   .+++++++",
"+++++++++++++++++++++",
"+++++++++++++++++++++",
"+++++++++++++++++++++",
"+++++++++++++++++++++",
"+++++++++++++++++++++",
"+++++++++++++++++++++",
"+++++++++++++++++++++",
"+++++++++++++++++++++"
};
