/* XPM */
static char *tb_doublewhole[] = {
/* columns rows colors chars-per-pixel */
"21 21 38 1",
"  c black",
". c #000001010000",
"X c #010100000000",
"o c #000000000202",
"O c #000002020000",
"+ c #000002020101",
"@ c #000003030000",
"# c #020202020000",
"$ c #000000000505",
"% c #010100000505",
"& c #000000000707",
"* c #010100000707",
"= c #030300000707",
"- c #020204040303",
"; c #030305050202",
": c #040404040404",
"> c #040405050707",
", c #040406060505",
"< c #070707070707",
"1 c #030300000909",
"2 c #040403030B0B",
"3 c #030308080101",
"4 c #090906060D0D",
"5 c #080809090404",
"6 c #080808080606",
"7 c #08080B0B0404",
"8 c #0B0B0D0D0C0C",
"9 c #0C0C0C0C0C0C",
"0 c gray6",
"q c #0B0B08081111",
"w c #0E0E13130F0F",
"e c #0F0F14140E0E",
"r c #101012120F0F",
"t c #121212121010",
"y c #131313131111",
"u c #131312121A1A",
"i c #181815151E1E",
"p c None",
/* pixels */
"ppppppppppppppppppppp",
"ppppppppppppppppppppp",
"ppppppppppppppppppppp",
"ppppppppppppppppppppp",
"ppppppppppppppppppppp",
"ppppppppppppppppppppp",
"ppppip&pppppp=p&ppppp",
"pppp&pup2&&4p2p4ppppp",
"pppprp r p; 6 p ppppp",
"pppp;p 7 pp; 6p ppppp",
"pppp3pe;rpp 0 pyppppp",
"pppp p   ;p , p ppppp",
"pppp p p,, ,p p ppppp",
"pppp0p0pppppp9p,ppppp",
"ppppppppppppppppppppp",
"ppppppppppppppppppppp",
"ppppppppppppppppppppp",
"ppppppppppppppppppppp",
"ppppppppppppppppppppp",
"ppppppppppppppppppppp",
"ppppppppppppppppppppp"
};
