/* XPM */
static char *tb_quarterrest[] = {
/* columns rows colors chars-per-pixel */
"21 21 13 1",
"  c black",
". c #010101010101",
"X c #020202020202",
"o c gray1",
"O c gray2",
"+ c gray4",
"@ c #0B0B0B0B0B0B",
"# c #0E0E0E0E0E0E",
"$ c gray6",
"% c #101010101010",
"& c #111111111111",
"* c #131313131313",
"= c None",
/* pixels */
"=====================",
"=====================",
"=====================",
"======== ============",
"========  ===========",
"=========O ==========",
"========= * =========",
"=========   =========",
"======== ##==========",
"=======** ===========",
"=======  ============",
"======== #===========",
"=======    ==========",
"======= *==O=========",
"=======@ ============",
"========#============",
"=====================",
"=====================",
"=====================",
"=====================",
"====================="
};
