/* XPM */
static char *tb_sixteenth[] = {
/* columns rows colors chars-per-pixel */
"21 21 18 1",
"  c black",
". c #010101010101",
"X c #020202020202",
"o c #040404040404",
"O c gray2",
"+ c #060606060606",
"@ c gray3",
"# c gray4",
"$ c #0B0B0B0B0B0B",
"% c #0C0C0C0C0C0C",
"& c #0E0E0E0E0E0E",
"* c gray6",
"= c #111111111111",
"- c #131313131313",
"; c gray8",
": c #151515151515",
"> c #161616161616",
", c None",
/* pixels */
",,,,,,,,,,,,,,,,,,,,,",
",,,,,,,,,,,,,,,,,,,,,",
",,,,,,,,,, ,,,,,,,,,,",
",,,,,,,,,,  ,,,,,,,,,",
",,,,,,,,,,&& ,,,,,,,,",
",,,,,,,,,,  O&,,,,,,,",
",,,,,,,,,, ,O  ,,,,,,",
",,,,,,,,,, ,,O$,,,,,,",
",,,,,,,,,,; ,, ,,,,,,",
",,,,,,,,,, $ , ,,,,,,",
",,,,,,,,,,;O $;,,,,,,",
",,,,,,,,,, ,-  ,,,,,,",
",,,,,,,,,, ,,$-,,,,,,",
",,,,,,,-   ,,, ,,,,,,",
",,,,,,$ -O ,,,$,,,,,,",
",,,,,O   $ ,,O,,,,,,,",
",,,,,  &  ,,,,,,,,,,,",
",,,,,,O $,,,,,,,,,,,,",
",,,,,,,,,,,,,,,,,,,,,",
",,,,,,,,,,,,,,,,,,,,,",
",,,,,,,,,,,,,,,,,,,,,"
};
