/* XPM */
static char *tb_sixtyfourthrest[] = {
/* columns rows colors chars-per-pixel */
"21 21 7 1",
"  c black",
". c #070707070707",
"X c #0B0B0B0B0B0B",
"o c #0E0E0E0E0E0E",
"O c #131313131313",
"+ c #161616161616",
"@ c None",
/* pixels */
"@@@@@@@@@@@@@@@@@@@@@",
"@@@@@@@@@@@@@@@@@@@@@",
"@@@@@@@@@  @@@X@@@@@@",
"@@@@@@@@@. @@@.@@@@@@",
"@@@@@@@@@.X   @@@@@@@",
"@@@@@@@@O @@@X@@@@@@@",
"@@@@@@@@ o@@o@@@@@@@@",
"@@@@@@@@  .  @@@@@@@@",
"@@@@@@@  @@@ @@@@@@@@",
"@@@@@@@O @@ @@@@@@@@@",
"@@@@@@@ .  .@@@@@@@@@",
"@@@@@@. @@@.@@@@@@@@@",
"@@@@@@ O@@X@@@@@@@@@@",
"@@@@@@ . X @@@@@@@@@@",
"@@@@@@@@@ @@@@@@@@@@@",
"@@@@@@@@@+@@@@@@@@@@@",
"@@@@@@@@ @@@@@@@@@@@@",
"@@@@@@@@ @@@@@@@@@@@@",
"@@@@@@@@@@@@@@@@@@@@@",
"@@@@@@@@@@@@@@@@@@@@@",
"@@@@@@@@@@@@@@@@@@@@@"
};
