/* XPM */
static char *tb_whole[] = {
/* columns rows colors chars-per-pixel */
"21 21 12 1",
"  c black",
". c #010101010101",
"X c #040404040404",
"o c gray2",
"O c #060606060606",
"+ c #070707070707",
"@ c gray3",
"# c #090909090909",
"$ c gray6",
"% c #111111111111",
"& c #151515151515",
"* c None",
/* pixels */
"*********************",
"*********************",
"*********************",
"*********************",
"*********************",
"*********************",
"*********************",
"********X@ X*********",
"******X@ * X &*******",
"******   **%  *******",
"******%  **  @*******",
"******  @@* @ *******",
"********  X@*********",
"*********************",
"*********************",
"*********************",
"*********************",
"*********************",
"*********************",
"*********************",
"*********************"
};
