/* XPM */
static char * accidentals_2bis2_xpm[] = {
"7 8 2 1",
" 	c None",
".	c #000000",
"... ...",
"... ...",
"... ...",
" ..... ",
" ..... ",
"... ...",
"... ...",
"... ..."};
