/* XPM */
static char * accidentals0_xpm[] = {
"5 22 2 1",
" 	c None",
".	c #000000",
".    ",
".    ",
".    ",
".    ",
".    ",
".....",
".....",
".....",
".....",
".  ..",
".  ..",
".  ..",
".  ..",
". ...",
".....",
".....",
".....",
"   ..",
"   ..",
"   ..",
"   ..",
"   .."};
