/* XPM */
static char * accidentals_rightparent_xpm[] = {
"3 16 2 1",
" 	c None",
".	c #000000",
".  ",
".  ",
".. ",
" . ",
" ..",
" ..",
"  .",
"  .",
"  .",
"  .",
" ..",
" ..",
" . ",
".. ",
".  ",
".  "};
