/* XPM */
static char * accidentals_2bis_xpm[] = {
"11 19 2 1",
" 	c None",
".	c #000000",
"..   .     ",
"..   .     ",
"..   .     ",
"..   .     ",
"..   .     ",
"..   .     ",
"..   .     ",
"..   .     ",
"..   .     ",
"..   .     ",
"...........",
"...........",
"..  ..   ..",
"..  ..   ..",
".. ...  .. ",
".... . ..  ",
"...  ...   ",
"..   ..    ",
" .   .     "};
