/* XPM */
static char * accordion_accStdbase_xpm[] = {
"30 29 2 1",
" 	c None",
".	c #000000",
"          ..........          ",
"        ...        ...        ",
"      ...            ...      ",
"     ..                ..     ",
"    ..                  ..    ",
"   ..                    ..   ",
"  ..                      ..  ",
"  ..........................  ",
" ..                        .. ",
" ..                        .. ",
" .                          . ",
" .                          . ",
"..                          ..",
"..                          ..",
"..............................",
"..                          ..",
" .                          . ",
" .                          . ",
" ..                        .. ",
" ..                        .. ",
"  .                        .  ",
"  ..........................  ",
"   ..                    ..   ",
"    ..                  ..    ",
"     ..                ..     ",
"      ..              ..      ",
"       ...          ...       ",
"         ............         ",
"             ....             "};
