/* XPM */
static char * clefs_percussion_change_xpm[] = {
"8 12 2 1",
" 	c None",
".	c #000000",
"...  ...",
"...  ...",
"...  ...",
"...  ...",
"...  ...",
"...  ...",
"...  ...",
"...  ...",
"...  ...",
"...  ...",
"...  ...",
"...  ..."};
