/* XPM */
static char * clefs_tab_xpm[] = {
"19 40 2 1",
" 	c None",
".	c #000000",
"     ........   ...",
"   ............... ",
"   ....   ......   ",
"   ...    ...      ",
"   ....  ....      ",
"    ...  ....      ",
"         ....      ",
"         ...       ",
"         ...       ",
"         ...       ",
"    ..  ...        ",
"    .......        ",
"      ...  ...     ",
"          ....     ",
"          ....     ",
"         .....     ",
"         .....     ",
"        ......     ",
"        ......     ",
"       ... ...     ",
"      .... ...     ",
"     ..... ...     ",
"    ..........     ",
".. ...     .....   ",
".....       ....   ",
"                   ",
"                   ",
"     .........     ",
"   ............    ",
"   .......  ....   ",
"   ... ...  ....   ",
"   .......  ...    ",
"    .. .......     ",
"       .........   ",
"       ..   ....   ",
"       ..    ...   ",
"      ...   ....   ",
"  .   ...   ....   ",
"  .............    ",
"   .... ......     "};
