/* XPM */
static char * clefs_percussion_xpm[] = {
"10 14 2 1",
" 	c None",
".	c #000000",
"....  ....",
"....  ....",
"....  ....",
"....  ....",
"....  ....",
"....  ....",
"....  ....",
"....  ....",
"....  ....",
"....  ....",
"....  ....",
"....  ....",
"....  ....",
"....  ...."};
