/* XPM */
static char * clefs_G_xpm[] = {
"18 53 2 1",
" 	c None",
".	c #000000",
"         .        ",
"        ...       ",
"       .....      ",
"       .....      ",
"      .......     ",
"      .... ..     ",
"      ...   ..    ",
"     ....   ..    ",
"     ...    ..    ",
"     ...    ..    ",
"     ..     ..    ",
"      .     ..    ",
"      .    ...    ",
"      .    ...    ",
"      .   ....    ",
"      ..  ...     ",
"      .. ....     ",
"      ......      ",
"       .....      ",
"       ....       ",
"      ....        ",
"     .....        ",
"    .....         ",
"    ......        ",
"   .... ..        ",
"  ....   .        ",
"  ....   .        ",
" ....    ...      ",
" ...   ........   ",
" ...  ..........  ",
"...  ............ ",
"...  ...  .. .....",
"...  ..   ..   ...",
"..   ..   ..   ...",
"..   ..    .    ..",
" ..  ..    ..   ..",
" ..   ..   ..   ..",
" ..    ... ..   ..",
"  ..    .. ..   ..",
"   ..       .  .. ",
"    ...     ....  ",
"      .........   ",
"         .....    ",
"            ..    ",
"    ...     ..    ",
"   .....     .    ",
"  ......     .    ",
"  ......    ..    ",
"  ......    ..    ",
"   .....    ..    ",
"   ...     ..     ",
"    ...   ..      ",
"     ......       "};
