/* XPM */
static char * eight_xpm[] = {
"6 6 23 1",
" 	c #FFFFFF",
".	c #868686",
"+	c #7B7B7B",
"@	c #878787",
"#	c #121212",
"$	c #D4D4D4",
"%	c #D2D2D2",
"&	c #131313",
"*	c #CDCDCD",
"=	c #141414",
"-	c #CCCCCC",
";	c #343434",
">	c #B9B9B9",
",	c #B8B8B8",
"'	c #323232",
")	c #101010",
"!	c #F4F4F4",
"~	c #F3F3F3",
"{	c #111111",
"]	c #A7A7A7",
"^	c #6E6E6E",
"/	c #6D6D6D",
"(	c #A8A8A8",
" .++@ ",
" #$%& ",
" *=&- ",
" ;>,' ",
" )!~{ ",
" ]^/( "};
