/* XPM */
static char * end_staff_xpm[] = {
"8 28 3 1",
" 	c None",
".	c #000000",
"+	c #FFFFFF",
"........",
".++.....",
".++.....",
".++.....",
".++.....",
".++.....",
"........",
".++.....",
".++.....",
".++.....",
".++.....",
".++.....",
".++.....",
"........",
".++.....",
".++.....",
".++.....",
".++.....",
".++.....",
".++.....",
"........",
".++.....",
".++.....",
".++.....",
".++.....",
".++.....",
".++.....",
"........"};
