/* XPM */
static char * five_xpm[] = {
"7 6 18 1",
" 	c #FFFFFF",
".	c #000000",
"+	c #979797",
"@	c #999999",
"#	c #FDFDFD",
"$	c #515151",
"%	c #0B0B0B",
"&	c #959595",
"*	c #C8C8C8",
"=	c #F8F8F8",
"-	c #AAAAAA",
";	c #0E0E0E",
">	c #ECECEC",
",	c #1C1C1C",
"'	c #CDCDCD",
")	c #A0A0A0",
"!	c #5C5C5C",
"~	c #BABABA",
"  .+@# ",
"  .    ",
"  .$%& ",
"  *=-; ",
"    >, ",
" ')&!~ "};
