/* XPM */
static char * flags_d6_xpm[] = {
"9 32 2 1",
" 	c None",
".	c #000000",
"        .",
"        .",
"        .",
"       ..",
"       ..",
"     ....",
" ........",
" ..... ..",
" ...   ..",
" ..   .. ",
" .   ....",
" .  .....",
"  .... ..",
" ....  . ",
" ...  .. ",
" ..   .. ",
" .   ... ",
".. ... . ",
"..... .. ",
"....  .. ",
"...  ..  ",
"...  ..  ",
"..  ..   ",
".. ...   ",
".....    ",
"....     ",
"...      ",
"...      ",
"..       ",
"..       ",
"..       ",
" .       "};
