/* XPM */
static char * flags_u5_xpm[] = {
"7 31 2 1",
" 	c None",
".	c #000000",
" .     ",
"..     ",
"..     ",
"..     ",
"...    ",
"...    ",
"....   ",
"....   ",
".....  ",
".. ... ",
"... .. ",
"...  . ",
".... ..",
".......",
".. .. .",
" .  ...",
" ..  ..",
" ..  ..",
" ...  .",
" .... .",
"   ....",
"    ...",
"     ..",
"     ..",
"      .",
"      .",
"      .",
"      .",
"      .",
"     ..",
"     . "};
