/* XPM */
static char * flags_dgrace_xpm[] = {
"15 9 2 1",
" 	c None",
".	c #000000",
"..             ",
"....           ",
"  ...          ",
"    ...        ",
"     ....      ",
"       ....    ",
"         ....  ",
"           ... ",
"             .."};
