/* XPM */
static char * goto_measure_xpm[] = {
"48 38 78 1",
" 	c None",
".	c #686868",
"+	c #616161",
"@	c #626262",
"#	c #6F6F6F",
"$	c #868686",
"%	c #A8A8A8",
"&	c #CECECE",
"*	c #BFBFBF",
"=	c #C6C6C6",
"-	c #C5C5C5",
";	c #B6B6B6",
">	c #9E9E9E",
",	c #7F7F7F",
"'	c #6B6B6B",
")	c #6E6E6E",
"!	c #9C9C9C",
"~	c #BEBEBE",
"{	c #7B7B7B",
"]	c #505050",
"^	c #B7B7B7",
"/	c #D3D3D3",
"(	c #5D5D5D",
"_	c #767676",
":	c #DDDDDD",
"<	c #8A8A8A",
"[	c #656565",
"}	c #DADADA",
"|	c #5E5E5E",
"1	c #DFDFDF",
"2	c #B1B1B1",
"3	c #5C5C5C",
"4	c #535353",
"5	c #A9A9A9",
"6	c #B4B4B4",
"7	c #D0D0D0",
"8	c #D2D2D2",
"9	c #3C3C3E",
"0	c #3D3F64",
"a	c #494B7A",
"b	c #494B79",
"c	c #4C4F7C",
"d	c #464973",
"e	c #252636",
"f	c #8B8B8B",
"g	c #7C7C7D",
"h	c #5D5F94",
"i	c #9398F8",
"j	c #959AF9",
"k	c #7E82D0",
"l	c #505163",
"m	c #E1E1E1",
"n	c #44454E",
"o	c #9599E5",
"p	c #A7ABFF",
"q	c #A6AAFC",
"r	c #60638C",
"s	c #919191",
"t	c #909092",
"u	c #616388",
"v	c #B3B6FC",
"w	c #A2A6E4",
"x	c #4F4F58",
"y	c #DBDBDB",
"z	c #50505D",
"A	c #A2A4D4",
"B	c #6B6D8B",
"C	c #909090",
"D	c #9A9A9B",
"E	c #4C4D59",
"F	c #48484C",
"G	c #D8D8D8",
"H	c #464646",
"I	c #9B9B9B",
"J	c #BDBDBD",
"K	c #000000",
"L	c #FF0000",
"M	c #FFFFFF",
"                                                ",
"                                                ",
"                        .+@#$%&                 ",
"                        *=-;>,')!               ",
"                               ~{]^             ",
"                                 /(_:           ",
"                                   <[}          ",
"                                    >|1         ",
"                                   ~23456^7     ",
"                                  890abcdef     ",
"                                   ghijjkl/     ",
"                                   mnopqrs      ",
"                                    tuvwxy      ",
"                                     zABC       ",
"                                     DEF        ",
"                                     GHI        ",
"                                      J         ",
"                                                ",
"                                                ",
"                                                ",
"KKKKKKKLKKKKKKKKKKKKKKKKKKKKKKKKKKKKKKLKKKKKKKKK",
"MMMMMMMLMMMMMMMMMMMMMMMMMMMMMMMMMMMMMMLMMMMMMMMM",
"MMMMMMMLMMMMMMMMMMMMMMMMMMMMMMMMMMMMMMLMMMMMMMMM",
"KKKKKKKLKKKKKKKKKKKKKKKKKKKKKKKKKKKKKKLKKKKKKKKK",
"MMMMMMMLMMMMMMMMMMMMMMMMMMMMMMMMMMMMMMLMMMMMMMMM",
"MMMMMMMLMMMMMMMMMMMMMMMMMMMMMMMMMMMMMMLMMMMMMMMM",
"KKKKKKKLKKKKKKKKKKKKKKKKKKKKKKKKKKKKKKLKKKKKKKKK",
"MMMMMMMLMMMMMMMMMMMMMMMMMMMMMMMMMMMMMMLMMMMMMMMM",
"MMMMMMMLMMMMMMMMMMMMMMMMMMMMMMMMMMMMMMLMMMMMMMMM",
"KKKKKKKLKKKKKKKKKKKKKKKKKKKKKKKKKKKKKKLKKKKKKKKK",
"MMMMMMMLMMMMMMMMMMMMMMMMMMMMMMMMMMMMMMLMMMMMMMMM",
"MMMMMMMLMMMMMMMMMMMMMMMMMMMMMMMMMMMMMMLMMMMMMMMM",
"KKKKKKKLKKKKKKKKKKKKKKKKKKKKKKKKKKKKKKLKKKKKKKKK",
"                                                ",
"                                                ",
"                                                ",
"                                                ",
"                                                "};
