/* XPM */
static char * nine_xpm[] = {
"6 6 23 1",
" 	c #FFFFFF",
".	c #A6A6A6",
"+	c #6D6D6D",
"@	c #757575",
"#	c #D1D1D1",
"$	c #151515",
"%	c #F5F5F5",
"&	c #EDEDED",
"*	c #3E3E3E",
"=	c #0F0F0F",
"-	c #C0C0C0",
";	c #AEAEAE",
">	c #060606",
",	c #8F8F8F",
"'	c #0A0A0A",
")	c #868686",
"!	c #111111",
"~	c #7B7B7B",
"{	c #707070",
"]	c #A5A5A5",
"^	c #767676",
"/	c #797979",
"(	c #FAFAFA",
" .+@# ",
" $%&* ",
" =-;> ",
" ,')! ",
"   ~{ ",
" ]^/( "};
