/* XPM */
static char * noteheads_1_xpm[] = {
"16 8 2 1",
" 	c None",
".	c #000000",
"..  ........  ..",
"......  ........",
".....     ......",
".....     ......",
".....      .....",
"......    ......",
"........  ......",
"..  ........  .."};
