/* XPM */
static char * noteheads_2triangle_xpm[] = {
"10 11 2 1",
" 	c None",
".	c #000000",
"..        ",
"....      ",
" .....    ",
" .........",
"  ........",
"  ....... ",
"  .....   ",
"  ....    ",
"  ...     ",
"  ..      ",
"  ..      "};
