/* XPM */
static char * noteheads_2slash_xpm[] = {
"12 14 2 1",
" 	c None",
".	c #000000",
"       .....",
"       .....",
"      ..... ",
"      ....  ",
"     .....  ",
"     ....   ",
"    .....   ",
"   .....    ",
"   ....     ",
"  .....     ",
"  ....      ",
" .....      ",
".....       ",
".....       "};
