/* XPM */
static char * noteheads_0_xpm[] = {
"14 8 2 1",
" 	c None",
".	c #000000",
"   ........   ",
" ....  ...... ",
"....     .....",
"....     .....",
"....      ....",
".....    .....",
" ......  .... ",
"   ........   "};
