/* XPM */
static char * noteheads_0triangle_xpm[] = {
"16 11 2 1",
" 	c None",
".	c #000000",
"...             ",
"......          ",
" ........       ",
" ... ...........",
"  ...    .......",
"  ...   .....   ",
"  ... .....     ",
"   ......       ",
"   ....         ",
"  ....          ",
"  ...           "};
