/* XPM */
static char * noteheads_2diamond_xpm[] = {
"10 8 2 1",
" 	c None",
".	c #000000",
"   ...... ",
"   .......",
"  ....... ",
"  ......  ",
" ......   ",
".......   ",
".......   ",
"......    "};
