/* XPM */
static char * noteheads_0cross_xpm[] = {
"12 8 2 1",
" 	c None",
".	c #000000",
" ...   .... ",
".. ...... ..",
"...  ..  ...",
"  ..    ..  ",
"  ..    ..  ",
"...  ..  ...",
".. ...... ..",
" ...   .... "};
