/* XPM */
static char * one_xpm[] = {
"7 6 7 1",
" 	c #FFFFFF",
".	c #C0C0C0",
"+	c #A7A7A7",
"@	c #080808",
"#	c #000000",
"$	c #BFBFBF",
"%	c #979797",
" .+@   ",
"   #   ",
"   #   ",
"   #   ",
"   #   ",
" $%#%. "};
