/* XPM */
static char * 4_xpm[] = {
"14 36 29 1",
" 	c None",
".	c #292829",
"+	c #000000",
"@	c #000400",
"#	c #BDBABD",
"$	c #949694",
"%	c #EFEBEF",
"&	c #DEDFDE",
"*	c #6B696B",
"=	c #393C39",
"-	c #D6D7D6",
";	c #424542",
">	c #BDBEBD",
",	c #CECFCE",
"'	c #101410",
")	c #E7E3E7",
"!	c #848684",
"~	c #ADAAAD",
"{	c #393839",
"]	c #5A5D5A",
"^	c #C6C7C6",
"/	c #7B7D7B",
"(	c #8C8E8C",
"_	c #080C08",
":	c #B5B2B5",
"<	c #313031",
"[	c #525552",
"}	c #636163",
"|	c #212021",
"     .+++@#   ",
"     @+++$%   ",
"    &+++* =-  ",
"    $++; >+-  ",
"    =+. ,'+-  ",
"   -+')!@++-  ",
"   *@, .+++-  ",
"  -+~  .+++-  ",
"  {!   .+++-  ",
" !]    .+++-  ",
"^;     .+++-  ",
"'*/////'+++*/!",
"(//////'+++*/!",
"       .+++-  ",
"       _+++:  ",
"      !++++{  ",
"    #<.[//}{|/",
"              ",
"              ",
"     .+++@#   ",
"     @+++$%   ",
"    &+++* =-  ",
"    $++; >+-  ",
"    =+. ,'+-  ",
"   -+')!@++-  ",
"   *@, .+++-  ",
"  -+~  .+++-  ",
"  {!   .+++-  ",
" !]    .+++-  ",
"^;     .+++-  ",
"'*/////'+++*/!",
"(//////'+++*/!",
"       .+++-  ",
"       _+++:  ",
"      !++++{  ",
"    #<.[//}{|/"};
