/* XPM */
static char * pedal__xpm[] = {
"6 3 2 1",
" 	c None",
".	c #000000",
" ... .",
"......",
"..... "};
