/* XPM */
static char * pedal_Ped_xpm[] = {
"22 14 2 1",
" 	c None",
".	c #000000",
"    .....             ",
"  .. ..               ",
" ..  .      ....      ",
"..   .         ...    ",
".  ...           ..   ",
".. ....           ..  ",
".... ...    ...   ... ",
"...   ...  .... .. ...",
"      ...  . .. .. ...",
"       .   . .  ..  ..",
"      .    ..   ..  ..",
"    .........  ...  ..",
"   ... ........... ...",
"  ...  ...  ...  .... "};
