/* XPM */
static char * rests_2bis_xpm[] = {
"8 20 2 1",
" 	c None",
".	c #000000",
"  ..    ",
"   ..   ",
"    ..  ",
"    ..  ",
"    ... ",
"   .....",
"  ......",
" ...... ",
" .....  ",
" ....   ",
"  ...   ",
"  ...   ",
"   ..   ",
" .....  ",
"....... ",
".... ...",
" ..     ",
" ..     ",
"  .     ",
"  ..    "};
