/* XPM */
static char * rests_5_xpm[] = {
"11 27 2 1",
" 	c None",
".	c #000000",
"     ...   ",
"    ....  .",
"    .......",
"    .......",
"     ......",
"         . ",
"        .. ",
"   ...  .. ",
"  ....  .. ",
"  .......  ",
"  .......  ",
"   ......  ",
"       ..  ",
"       .   ",
" ...  ..   ",
"....  ..   ",
"........   ",
" .......   ",
"  .....    ",
"     ..    ",
"     ..    ",
"     ..    ",
"    ..     ",
"    ..     ",
"    ..     ",
"    ..     ",
"   ..      "};
