/* XPM */
static char * rests_2neo_mensuralbis_xpm[] = {
"6 6 2 1",
" 	c None",
".	c #000000",
"..    ",
"..... ",
"......",
"..    ",
"..    ",
"..    "};
