/* XPM */
static char * rests_1neo_mensuralbis2_xpm[] = {
"6 7 2 1",
" 	c None",
".	c #000000",
"   ...",
" .....",
"......",
"......",
"......",
"... ..",
"    .."};
