/* XPM */
static char * rests_7_xpm[] = {
"13 41 2 1",
" 	c None",
".	c #000000",
"       ..    ",
"      .... ..",
"      .... . ",
"      ...... ",
"       ..... ",
"          .. ",
"          .. ",
"     ...  .. ",
"    ....  .  ",
"    .......  ",
"     ......  ",
"      .....  ",
"         ..  ",
"         ..  ",
"    ...  .   ",
"   ....  .   ",
"   .... ..   ",
"   .......   ",
"    ......   ",
"        ..   ",
"        .    ",
"  ...   .    ",
" ..... ..    ",
" ........    ",
"  .......    ",
"   ... ..    ",
"       .     ",
"      ..     ",
" ...  ..     ",
"....  ..     ",
"........     ",
"........     ",
"  ..  .      ",
"     ..      ",
"     ..      ",
"     ..      ",
"     ..      ",
"     ..      ",
"    ...      ",
"    ..       ",
"    ..       "};
