/* XPM */
static char * scripts_ufermata_xpm[] = {
"18 11 2 1",
" 	c None",
".	c #000000",
"      ......      ",
"    ..........    ",
"   ............   ",
"  .....    .....  ",
" ....        .... ",
" ...          ... ",
" ..            .. ",
"..     ....     ..",
"..     ....     ..",
".      ....      .",
".       ..       ."};
