/* XPM */
static char * scripts_lineprall_xpm[] = {
"23 19 2 1",
" 	c None",
".	c #000000",
" .                     ",
"..                     ",
"..                     ",
"..                     ",
"..                     ",
"..                     ",
"..                     ",
"..                     ",
"..                     ",
"..                     ",
"..                     ",
".. ..     .     ..     ",
".. ...   ...    ...    ",
".......  ....  .....  .",
".......................",
".......................",
"..  .....  ....  ..... ",
"     ...    ...   ...  ",
"      ..     .     ..  "};
