/* XPM */
static char * scripts_dfermata_xpm[] = {
"18 11 2 1",
" 	c None",
".	c #000000",
".       ..       .",
".      ....      .",
"..     ....     ..",
"..     ....     ..",
" ..            .. ",
" ...          ... ",
" ....        .... ",
"  .....    .....  ",
"   ............   ",
"    ..........    ",
"      ......      "};
