/* XPM */
static char * scripts_segno_xpm[] = {
"14 22 2 1",
" 	c None",
".	c #000000",
"   ..       ..",
" ......    ...",
"...  ...   .. ",
"..   ...  ... ",
"...  ...  ..  ",
"...  ... ...  ",
"....  . ...   ",
".....   ..    ",
" ..... ...    ",
"  .......  .. ",
"   ......  .. ",
" ..  ......   ",
" ..  .......  ",
"    ... ..... ",
"    ..   .....",
"   ... .  ....",
"  ... ...  ...",
"  ..  ...  ...",
" ...  ...   ..",
" ..   ...  ...",
"...    ...... ",
"..       ..   "};
