/* XPM */
static char * scripts_prallmordent_xpm[] = {
"22 10 2 1",
" 	c None",
".	c #000000",
"             ..       ",
"  ..     .   ....     ",
"  ...   ...  .....    ",
" .....  .... ......  .",
"......................",
"......................",
".  .....  ..... ..... ",
"    ...    ....  ...  ",
"     ..     ...   ..  ",
"             ..       "};
