/* XPM */
static char * scripts_upmordent_xpm[] = {
"23 13 2 1",
" 	c None",
".	c #000000",
"              ..       ",
"   ..     .   ....     ",
"   ...   ...  .....    ",
"  .....  .... ......  .",
" ......................",
" ......................",
"..  .....  ..... ..... ",
"..   ...    ....  ...  ",
"..    ..     ...   ..  ",
"..            ..       ",
"..                     ",
"..                     ",
" .                     "};
