/* XPM */
static char * scripts_sforzato_xpm[] = {
"12 8 2 1",
" 	c None",
".	c #000000",
"..          ",
".....       ",
"   ......   ",
"       .....",
"       .....",
"   ......   ",
".....       ",
"..          "};
