/* XPM */
static char * scripts_dpedalheel_xpm[] = {
"8 9 2 1",
" 	c None",
".	c #000000",
"  ....  ",
" ...... ",
"...  ...",
"..    ..",
"..    ..",
"..    ..",
"..    ..",
"..    ..",
"..    .."};
