/* XPM */
static char * scripts_mordent_xpm[] = {
"16 10 2 1",
" 	c None",
".	c #000000",
"       ..       ",
"   .   ...      ",
"  ...  .....    ",
" ..... ...... ..",
" ...............",
"............... ",
".  ...... ..... ",
"    .....  ...  ",
"     ....   .   ",
"       ..       "};
