/* XPM */
static char * scripts_ustaccatissimo_xpm[] = {
"4 7 2 1",
" 	c None",
".	c #000000",
" .. ",
"....",
" .. ",
" .. ",
" .. ",
" .. ",
" .. "};
