/* XPM */
static char * scripts_prallup_xpm[] = {
"24 10 2 1",
" 	c None",
".	c #000000",
"                     .. ",
"                      ..",
"     ..     .     ..  ..",
"    ...    ...   ...  ..",
".  .....  ....  ..... ..",
"........................",
"....................... ",
" .....  ....  .....  .  ",
"  ...   ...    ...      ",
"  ..     .     ..       "};
