/* XPM */
static char * scripts_rcomma_xpm[] = {
"3 9 2 1",
" 	c None",
".	c #000000",
" . ",
"...",
"...",
" ..",
" ..",
" ..",
" ..",
".. ",
".  "};
