/* XPM */
static char * scripts_trilelement_xpm[] = {
"10 8 2 1",
" 	c None",
".	c #000000",
"   .      ",
"  ...     ",
"  ....  ..",
" .........",
"......... ",
"..  ....  ",
"     ...  ",
"      .   "};
