/* XPM */
static char * scripts_flageolet_xpm[] = {
"8 8 2 1",
" 	c None",
".	c #000000",
"  ....  ",
" ..  .. ",
"..    ..",
".      .",
".      .",
"..    ..",
" ..  .. ",
"  ....  "};
