/* XPM */
static char * seven_xpm[] = {
"6 6 15 1",
" 	c #FFFFFF",
".	c #060606",
"+	c #979797",
"@	c #919191",
"#	c #040404",
"$	c #FBFBFB",
"%	c #CBCBCB",
"&	c #474747",
"*	c #949494",
"=	c #9B9B9B",
"-	c #616161",
";	c #EAEAEA",
">	c #6A6A6A",
",	c #F2F2F2",
"'	c #999999",
" .+@# ",
" $ %& ",
"   *= ",
"   -; ",
"   >  ",
"  ,'  "};
