/* XPM */
static char * six_xpm[] = {
"6 6 22 1",
" 	c #FFFFFF",
".	c #FAFAFA",
"+	c #797979",
"@	c #767676",
"#	c #B1B1B1",
"$	c #6F6F6F",
"%	c #7B7B7B",
"&	c #101010",
"*	c #868686",
"=	c #0B0B0B",
"-	c #919191",
";	c #050505",
">	c #AFAFAF",
",	c #BDBDBD",
"'	c #3B3B3B",
")	c #EEEEEE",
"!	c #F4F4F4",
"~	c #161616",
"{	c #CFCFCF",
"]	c #757575",
"^	c #6D6D6D",
"/	c #A6A6A6",
" .+@# ",
" $%   ",
" &*=- ",
" ;>,& ",
" ')!~ ",
" {]^/ "};
