/* XPM */
static char * solfa_0la_xpm[] = {
"13 8 2 1",
" 	c None",
".	c #000000",
".............",
".............",
"..          .",
"..          .",
"..          .",
"..          .",
".............",
"............."};
