/* XPM */
static char * solfa_1do_xpm[] = {
"11 8 2 1",
" 	c None",
".	c #000000",
"     .     ",
"    ...    ",
"   .. ..   ",
"  ... ...  ",
"  ..   ..  ",
" ..     .. ",
"...........",
"..........."};
