/* XPM */
static char * solfa_1me_xpm[] = {
"11 8 2 1",
" 	c None",
".	c #000000",
"    ...    ",
"   .....   ",
" ...  .... ",
"...    ....",
"....    ...",
" ....  ... ",
"   .....   ",
"    ...    "};
