/* XPM */
static char * spcg_co_barline_xpm[] = {
"32 32 2 1",
" 	c None",
".	c #000000",
"                                ",
"                                ",
"                                ",
"                                ",
"                                ",
"             . ... .            ",
"             . ... .            ",
"             . ... .            ",
"             . ... .            ",
"             . ... .            ",
"             . ... .            ",
"             . ... .            ",
"             . ... .            ",
"         ..  . ... .  ..        ",
"         ..  . ... .  ..        ",
"             . ... .            ",
"             . ... .            ",
"             . ... .            ",
"         ..  . ... .  ..        ",
"         ..  . ... .  ..        ",
"             . ... .            ",
"             . ... .            ",
"             . ... .            ",
"             . ... .            ",
"             . ... .            ",
"             . ... .            ",
"             . ... .            ",
"                                ",
"                                ",
"                                ",
"                                ",
"                                "};
