/* XPM */
static char * spcg_bm_bt_xpm[] = {
"32 32 4 1",
" 	c None",
".	c #F80000",
"+	c #000000",
"@	c #000400",
"                                ",
"                                ",
"                                ",
"                                ",
"                                ",
"                                ",
"                      ....      ",
"              ............      ",
"          ............   +      ",
"          ....           +      ",
"          +              +      ",
"          +              +      ",
"          +              @      ",
"          +              +      ",
"          @              +      ",
"          +              +      ",
"          +              +      ",
"          +              +      ",
"          +           ++++      ",
"          +          +@++@      ",
"       ++++         @@++++      ",
"      +@++@         ++++@       ",
"     @@++++          +++        ",
"     ++++@                      ",
"      +++                       ",
"                                ",
"                                ",
"                                ",
"                                ",
"                                ",
"                                ",
"                                "};
