/* XPM */
static char * spcg_bl_sblad_xpm[] = {
"32 32 4 1",
" 	c None",
".	c #000000",
"+	c #A0A0A0",
"@	c #FF0000",
"                                ",
"                    .           ",
"                    .           ",
"                    .           ",
"                    .           ",
"                    .           ",
"                    .           ",
"                    .           ",
"                    .           ",
"                    .           ",
"             ..     .           ",
"             ..     .           ",
"                    .           ",
"                    .           ",
"             ..     .           ",
"             ..     .           ",
"             +      .           ",
"                    .           ",
"             +      .           ",
"                    .           ",
"             +      .           ",
"                    .           ",
"             +      .           ",
"                    .           ",
"             +      .           ",
"                                ",
"             +      +           ",
"                                ",
"             @      @           ",
"             @@@@@@@@           ",
"             @      @           ",
"                                "};
