/* XPM */
static char * spcg_ks_sbksa_xpm[] = {
"32 32 61 1",
" 	c None",
".	c #414141",
"+	c #C0C0C0",
"@	c #828282",
"#	c #000000",
"$	c #020202",
"%	c #1F1F1F",
"&	c #050505",
"*	c #3A3A3A",
"=	c #848484",
"-	c #C8C8C8",
";	c #787878",
">	c #070707",
",	c #7F7F7F",
"'	c #B2B2B2",
")	c #737373",
"!	c #8E8E8E",
"~	c #0A0A0A",
"{	c #525252",
"]	c #111111",
"^	c #2E2E2E",
"/	c #676767",
"(	c #ABABAB",
"_	c #6A6A6A",
":	c #292929",
"<	c #D9D9D9",
"[	c #181818",
"}	c #1A1A1A",
"|	c #7B7B7B",
"1	c #222222",
"2	c #0F0F0F",
"3	c #DDDDDD",
"4	c #434343",
"5	c #A0A0A0",
"6	c #242424",
"7	c #5B5B5B",
"8	c #A4A4A4",
"9	c #353535",
"0	c #898989",
"a	c #989898",
"b	c #595959",
"c	c #161616",
"d	c #E9E9E9",
"e	c #575757",
"f	c #D4D4D4",
"g	c #3F3F3F",
"h	c #D1D1D1",
"i	c #EEEEEE",
"j	c #909090",
"k	c #CFCFCF",
"l	c #4D4D4D",
"m	c #A1A1A1",
"n	c #E2E2E2",
"o	c #303030",
"p	c #9A9A9A",
"q	c #CCCCCC",
"r	c #373737",
"s	c #B9B9B9",
"t	c #464646",
"u	c #7D7D7D",
"v	c #FF0000",
"                                ",
"                                ",
"     .+                         ",
"    @#$              %          ",
"    &#*=             #          ",
"   -#; >             #          ",
"   ,#  #             #          ",
"   ')  #             #          ",
"    , !#      %      ~ ##       ",
"    { ]^      #      &##~&      ",
"    #/#(      #      &# &#      ",
"    _#:       #      #  ##      ",
"   <[#        #      # ##       ",
"   }#.        ~ ##   ###        ",
"  |#=1        &##~&  ~2         ",
"  #% ,+       &# &#             ",
" ,#3=1#4=     #  ##  5          ",
" 678#9#}#0    # ##              ",
" #a,b # b#    ###    5          ",
" cd,, e  #    ~2                ",
" ,,fg<,, #    5      5          ",
" hgih1j, ]                      ",
"  klmnnogk    5      5          ",
"    pb[#q                       ",
"   _(  ~      5      5          ",
"  r##  ;                        ",
"  &##  #      5      5          ",
"  @#= st                        ",
"   .gu.       v      v          ",
"              vvvvvvvv          ",
"              v      v          ",
"                                "};
