/* XPM */
static char * tb_beam_xpm[] = {
"21 21 13 1",
" 	c None",
".	c #FF0000",
"+	c #101010",
"@	c #000000",
"#	c #040404",
"$	c #080808",
"%	c #191919",
"&	c #020202",
"*	c #010101",
"=	c #0A0A0A",
"-	c #030303",
";	c #090909",
">	c #0B0B0B",
"                     ",
"                     ",
"                     ",
"      ...........    ",
"      ...........    ",
"      +         +    ",
"      @         @    ",
"      @         @    ",
"      #         #    ",
"      $         $    ",
"      @         @    ",
"      %         %    ",
"      &         &    ",
"      *         *    ",
"   @=@-      @=@-    ",
"  #-@;@     #-@;@    ",
" @-@@#*    @-@@#*    ",
" @@-@+     @@-@+     ",
"  ;@>       ;@>      ",
"                     ",
"                     "};
