/* XPM */
static char *tb_doubleflat[] = {
/* columns rows colors chars-per-pixel */
"21 21 12 1",
"  c black",
". c #010101010101",
"X c #020202020202",
"o c gray1",
"O c #040404040404",
"+ c gray2",
"@ c #060606060606",
"# c gray3",
"$ c #090909090909",
"% c #0B0B0B0B0B0B",
"& c gray6",
"* c None",
/* pixels */
"*********************",
"*********************",
"*********************",
"*********************",
"*****O**** **********",
"***** **** **********",
"***** **** **********",
"*****O****$**********",
"*****$**** **********",
"*****O* O* *  *******",
"*****  O  O OO ******",
"*****O *$   *  ******",
"***** **O $**& ******",
"***** *  *O*  *******",
"*****   **  &********",
"*****$O***  *********",
"*********************",
"*********************",
"*********************",
"*********************",
"*********************"
};
