/* XPM */
static char * tb_forte_xpm[] = {
"22 22 54 1",
" 	c None",
".	c #646464",
"+	c #0F0F0F",
"@	c #010101",
"#	c #484848",
"$	c #D8D8D8",
"%	c #1A1A1A",
"&	c #A3A3A3",
"*	c #DEDEDE",
"=	c #000000",
"-	c #999999",
";	c #232323",
">	c #333333",
",	c #8E8E8E",
"'	c #797979",
")	c #8D8D8D",
"!	c #595959",
"~	c #E4E4E4",
"{	c #0D0D0D",
"]	c #C7C7C7",
"^	c #030303",
"/	c #1E1E1E",
"(	c #686868",
"_	c #494949",
":	c #343434",
"<	c #939393",
"[	c #040404",
"}	c #DCDCDC",
"|	c #BBBBBB",
"1	c #272727",
"2	c #7F7F7F",
"3	c #747474",
"4	c #434343",
"5	c #CBCBCB",
"6	c #0B0B0B",
"7	c #2C2C2C",
"8	c #CACACA",
"9	c #9E9E9E",
"0	c #DDDDDD",
"a	c #151515",
"b	c #4A4A4A",
"c	c #909090",
"d	c #282828",
"e	c #878787",
"f	c #363636",
"g	c #444444",
"h	c #020202",
"i	c #BFBFBF",
"j	c #D7D7D7",
"k	c #9D9D9D",
"l	c #545454",
"m	c #070707",
"n	c #252525",
"o	c #A2A2A2",
"                      ",
"             .+@#     ",
"           $%@&*=-    ",
"           ;=# >=,    ",
"          '==) !%~    ",
"          {==]        ",
"       ~^=====/       ",
"         (==_         ",
"         :==<         ",
"         [==}         ",
"        |==1          ",
"        2==3          ",
"        4==5          ",
"        6=7           ",
"       8==9           ",
"   0ab c=d            ",
"   e=f ghi            ",
"   <=jk=)             ",
"    lmno              ",
"                      ",
"                      ",
"                      "};
