/* XPM */
static char *tb_quarter[] = {
/* columns rows colors chars-per-pixel */
"22 22 5 1",
"  c black",
". c #010101010101",
"X c gray1",
"o c gray2",
"O c None",
/* pixels */
"OOOOOOOOOOOOOOOOOOOOOO",
"OOOOOOOOOOOOOOOOOOOOOO",
"OOOOOOOOOOOOOOOOOOOOOO",
"OOOOOOOOOOOOO OOOOOOOO",
"OOOOOOOOOOOOO OOOOOOOO",
"OOOOOOOOOOOOO OOOOOOOO",
"OOOOOOOOOOOOO OOOOOOOO",
"OOOOOOOOOOOOO OOOOOOOO",
"OOOOOOOOOOOOOoOOOOOOOO",
"OOOOOOOOOOOOO OOOOOOOO",
"OOOOOOOOOOOOO OOOOOOOO",
"OOOOOOOOOOOOO OOOOOOOO",
"OOOOOOOOOOOOO OOOOOOOO",
"OOOOOOOOOOOOO OOOOOOOO",
"OOOOOOOOOO    OOOOOOOO",
"OOOOOOOOO o  oOOOOOOOO",
"OOOOOOOOoo    OOOOOOOO",
"OOOOOOOO    oOOOOOOOOO",
"OOOOOOOOO   OOOOOOOOOO",
"OOOOOOOOOOOOOOOOOOOOOO",
"OOOOOOOOOOOOOOOOOOOOOO",
"OOOOOOOOOOOOOOOOOOOOOO"
};
