/* XPM */
static char *tb_sixteenthrest[] = {
/* columns rows colors chars-per-pixel */
"21 21 12 1",
"  c black",
". c #040404040404",
"X c gray2",
"o c #070707070707",
"O c gray3",
"+ c #0B0B0B0B0B0B",
"@ c #0C0C0C0C0C0C",
"# c gray6",
"$ c #101010101010",
"% c #111111111111",
"& c gray12",
"* c None",
/* pixels */
"*********************",
"*********************",
"*********************",
"*********************",
"********  **** ******",
"*******# +#**X ******",
"******* X  *++*******",
"********  + * *******",
"******X **** ********",
"***** X  ***X********",
"*****#  &**X*********",
"******X#  # *********",
"********** **********",
"**********X**********",
"********* ***********",
"*********X***********",
"*********************",
"*********************",
"*********************",
"*********************",
"*********************"
};
