/* XPM */
static char *tb_sixtyfourth[] = {
/* columns rows colors chars-per-pixel */
"21 21 14 1",
"  c black",
". c #010101010101",
"X c #020202020202",
"o c gray2",
"O c #060606060606",
"+ c #070707070707",
"@ c gray3",
"# c gray4",
"$ c #0B0B0B0B0B0B",
"% c #0C0C0C0C0C0C",
"& c #0E0E0E0E0E0E",
"* c gray6",
"= c #111111111111",
"- c None",
/* pixels */
"---------------------",
"---------------------",
"----------*O---------",
"----------#-O--------",
"---------- -- -------",
"----------  -- ------",
"---------- -#--------",
"---------- --*-------",
"----------O -- ------",
"---------- - --------",
"---------- --O-------",
"----------* -- ------",
"----------#-#--------",
"------- OO --#-------",
"------   * --- ------",
"-----# =  #----------",
"----- O   -----------",
"------#  ------------",
"---------------------",
"---------------------",
"---------------------"
};
