/* XPM */
static char *tb_thirtysecond[] = {
/* columns rows colors chars-per-pixel */
"21 21 9 1",
"  c black",
". c gray2",
"X c gray4",
"o c gray5",
"O c #101010101010",
"+ c gray8",
"@ c #181818181818",
"# c gray11",
"$ c None",
/* pixels */
"$$$$$$$$$$$$$$$$$$$$$",
"$$$$$$$$$$$$$$$$$$$$$",
"$$$$$$$$$$ $$$$$$$$$$",
"$$$$$$$$$$  $$$$$$$$$",
"$$$$$$$$$$ @ $$$$$$$$",
"$$$$$$$$$$ $#o$$$$$$$",
"$$$$$$$$$$ o$  $$$$$$",
"$$$$$$$$$$. o$ $$$$$$",
"$$$$$$$$$$ $  o$$$$$$",
"$$$$$$$$$$ X$..$$$$$$",
"$$$$$$$$$$X  $ $$$$$$",
"$$$$$$$$$$ $X +$$$$$$",
"$$$$$$$$$$ $$.$$$$$$$",
"$$$$$$$O  X$$ $$$$$$$",
"$$$$$$  O @$ $$$$$$$$",
"$$$$$ X    $$$$$$$$$$",
"$$$$$ X  .$$$$$$$$$$$",
"$$$$$$   $$$$$$$$$$$$",
"$$$$$$$$$$$$$$$$$$$$$",
"$$$$$$$$$$$$$$$$$$$$$",
"$$$$$$$$$$$$$$$$$$$$$"
};
