/* XPM */
static char * three_xpm[] = {
"7 6 22 1",
" 	c #FFFFFF",
".	c #F8F8F8",
"+	c #979797",
"@	c #9B9B9B",
"#	c #5F5F5F",
"$	c #8E8E8E",
"%	c #FEFEFE",
"&	c #FCFCFC",
"*	c #F0F0F0",
"=	c #0E0E0E",
"-	c #A9A9A9",
";	c #656565",
">	c #BEBEBE",
",	c #A1A1A1",
"'	c #626262",
")	c #EBEBEB",
"!	c #0F0F0F",
"~	c #D7D7D7",
"{	c #9D9D9D",
"]	c #969696",
"^	c #555555",
"/	c #ADADAD",
" .+@#$ ",
" %& *= ",
"   -;> ",
"   %,' ",
"    )! ",
" ~{]^/ "};
