/* XPM */
static char * two_xpm[] = {
"7 6 21 1",
" 	c #FFFFFF",
".	c #FBFBFB",
"+	c #9B9B9B",
"@	c #999999",
"#	c #595959",
"$	c #A9A9A9",
"%	c #D9D9D9",
"&	c #E6E6E6",
"*	c #EEEEEE",
"=	c #0D0D0D",
"-	c #989898",
";	c #5F5F5F",
">	c #767676",
",	c #FCFCFC",
"'	c #FEFEFE",
")	c #909090",
"!	c #A3A3A3",
"~	c #9C9C9C",
"{	c #6B6B6B",
"]	c #979797",
"^	c #080808",
" .+@#$ ",
" %& *= ",
"    -; ",
"   +>, ",
" ')! ' ",
" ~{]]^ "};
