/* XPM */
static char * zero_xpm[] = {
"6 6 15 1",
" 	c #FFFFFF",
".	c #BDBDBD",
"+	c #666666",
"@	c #2A2A2A",
"#	c #DBDBDB",
"$	c #DADADA",
"%	c #2B2B2B",
"&	c #010101",
"*	c #FDFDFD",
"=	c #FCFCFC",
"-	c #292929",
";	c #DCDCDC",
">	c #BBBBBB",
",	c #656565",
"'	c #BCBCBC",
" .++. ",
" @#$% ",
" &*=& ",
" &*=& ",
" -;$@ ",
" >,,' "};
