/* XPM */
static char * clefs_F_xpm[] = {
"19 22 2 1",
" 	c None",
".	c #000000",
"     ...           ",
"   ........        ",
" ...     ....      ",
" ..       .... ... ",
".....     .... ....",
"......     ....... ",
"......     ....    ",
"......     ....    ",
"......     ....    ",
" .....     ....    ",
"           ... ... ",
"          .... ....",
"          .... ... ",
"         ....      ",
"        ....       ",
"        ....       ",
"       ....        ",
"     ....          ",
"    ....           ",
"   ...             ",
" ....              ",
"...                "};
