/* XPM */
static char * 3_xpm[] = {
"14 36 42 1",
" 	c None",
".	c #535353",
"+	c #242424",
"@	c #474747",
"#	c #3B3B3B",
"$	c #999999",
"%	c #181818",
"&	c #000000",
"*	c #767676",
"=	c #8D8D8D",
"-	c #5E5E5E",
";	c #2F2F2F",
">	c #0C0C0C",
",	c #828282",
"'	c #6A6A6A",
")	c #292829",
"!	c #000400",
"~	c #BDBABD",
"{	c #949694",
"]	c #EFEBEF",
"^	c #DEDFDE",
"/	c #6B696B",
"(	c #393C39",
"_	c #D6D7D6",
":	c #424542",
"<	c #BDBEBD",
"[	c #CECFCE",
"}	c #101410",
"|	c #E7E3E7",
"1	c #848684",
"2	c #ADAAAD",
"3	c #393839",
"4	c #5A5D5A",
"5	c #C6C7C6",
"6	c #7B7D7B",
"7	c #8C8E8C",
"8	c #080C08",
"9	c #B5B2B5",
"0	c #313031",
"a	c #525552",
"b	c #636163",
"c	c #212021",
"              ",
"    .+@+#+#$  ",
"   %&*   &&&= ",
"  -&&+   ;&&; ",
"  .&&&-  .&&& ",
"  $&&>   .&&& ",
"    ,    @&&> ",
"         %&&* ",
"    $'..;&&=  ",
"    $...#&&-  ",
"         ;&&# ",
"         @&&& ",
"  =+%;   .&&& ",
"  %&&&-  .&&& ",
"  >&&&.  #&&& ",
"  .&&-   %&&% ",
"   +&-  *&&+  ",
"    ';.;+#,   ",
"              ",
"     )&&&!~   ",
"     !&&&{]   ",
"    ^&&&/ (_  ",
"    {&&: <&_  ",
"    (&) [}&_  ",
"   _&}|1!&&_  ",
"   /![ )&&&_  ",
"  _&2  )&&&_  ",
"  31   )&&&_  ",
" 14    )&&&_  ",
"5:     )&&&_  ",
"}/66666}&&&/61",
"7666666}&&&/61",
"       )&&&_  ",
"       8&&&9  ",
"      1&&&&3  ",
"    ~0)a66b3c6"};
