/* XPM */
static char * p_68_xpm[] = {
"13 36 35 1",
" 	c None",
".	c #7B7D7B",
"+	c #393C39",
"@	c #525552",
"#	c #393839",
"$	c #848684",
"%	c #D6D7D6",
"&	c #181C18",
"*	c #000000",
"=	c #292829",
"-	c #EFEBEF",
";	c #101410",
">	c #BDBEBD",
",	c #C6C7C6",
"'	c #5A5D5A",
")	c #000400",
"!	c #DEDFDE",
"~	c #212021",
"{	c #949694",
"]	c #4A4D4A",
"^	c #424542",
"/	c #A5A2A5",
"(	c #B5B2B5",
"_	c #737173",
":	c #080C08",
"<	c #9C9E9C",
"[	c #313031",
"}	c #6B696B",
"|	c #ADAAAD",
"1	c #7B797B",
"2	c #E7E3E7",
"3	c #636163",
"4	c #BDBABD",
"5	c #8C8E8C",
"6	c #CECFCE",
"    .+@##$   ",
"  %&#   +*=  ",
" -;*>  ,;**$ ",
" '**   )***@ ",
"!**~   +***{ ",
"$**=   -@=$  ",
"+**=         ",
";**=         ",
"***;@]^&'>   ",
"****/  (**_  ",
":**)    &**< ",
"[**=    ]**# ",
"}**=    @*** ",
"(**=    @*** ",
" &*=    ]**# ",
" |*)    &**< ",
"  }*/  (**_  ",
"   (+^^&'>   ",
"   |+=@]^12  ",
" -#*3    {;4 ",
" #*:      {: ",
"4**=       *(",
".***2      *(",
"5***~>    |: ",
"!*****]!  ~$ ",
" 1*****)_^^  ",
"  3*******{  ",
" %;$@******} ",
"-;5  >[*****(",
"'+     <;***#",
":<      -&***",
")/       {**:",
"^@       /**]",
"6)4      @*)6",
" 4&5    5*;4 ",
"   $^^@[#$   "};
