/* XPM */
static char * spcg_cl_sb_xpm[] = {
"32 32 61 1",
" 	c None",
".	c #414141",
"+	c #C0C0C0",
"@	c #828282",
"#	c #000000",
"$	c #020202",
"%	c #050505",
"&	c #3A3A3A",
"*	c #848484",
"=	c #C8C8C8",
"-	c #787878",
";	c #070707",
">	c #7F7F7F",
",	c #B2B2B2",
"'	c #737373",
")	c #8E8E8E",
"!	c #525252",
"~	c #111111",
"{	c #2E2E2E",
"]	c #676767",
"^	c #ABABAB",
"/	c #6A6A6A",
"(	c #292929",
"_	c #D9D9D9",
":	c #181818",
"<	c #1A1A1A",
"[	c #FFA1A1",
"}	c #FF0000",
"|	c #7B7B7B",
"1	c #222222",
"2	c #1F1F1F",
"3	c #DDDDDD",
"4	c #434343",
"5	c #242424",
"6	c #5B5B5B",
"7	c #A4A4A4",
"8	c #353535",
"9	c #898989",
"0	c #989898",
"a	c #595959",
"b	c #161616",
"c	c #E9E9E9",
"d	c #575757",
"e	c #D6D6D6",
"f	c #D4D4D4",
"g	c #3F3F3F",
"h	c #D1D1D1",
"i	c #EEEEEE",
"j	c #909090",
"k	c #CFCFCF",
"l	c #4D4D4D",
"m	c #A1A1A1",
"n	c #E2E2E2",
"o	c #303030",
"p	c #9A9A9A",
"q	c #CCCCCC",
"r	c #0A0A0A",
"s	c #373737",
"t	c #B9B9B9",
"u	c #464646",
"v	c #7D7D7D",
"                                ",
"                                ",
"                                ",
"                    .+          ",
"                   @#$          ",
"                   %#&*         ",
"                  =#- ;         ",
"                  >#  #         ",
"                  ,'  #         ",
"                   > )#         ",
"                   ! ~{         ",
"                   #]#^         ",
"                   /#(          ",
"                  _:#           ",
"                  <#.           ",
"  [}         }   |#*1           ",
" }}}}}}}}}}}}}   #2 >+          ",
"  [}         }  >#3*1#4*        ",
"                567#8#<#9       ",
"                #0>a #_a#       ",
"                bc>> d e#       ",
"                >>fg_>> #       ",
"                hgih1j> ~       ",
"                 klmnnogk       ",
"                   pa:#q        ",
"                  /^  r         ",
"                 s##  -         ",
"                 %##  #         ",
"                 @#* tu         ",
"                  .gv.          ",
"                                ",
"                                "};
