/* XPM */
static char *spcg_bl_tlt[] = {
/* columns rows colors chars-per-pixel */
"32 32 3 1",
"  c black",
". c red",
"X c None",
/* pixels */
"XXXXXXXXXXXXXXXXXXXXXXXXXXXXXXXX",
"XXXXXXXXXXXXXXXXXXXXXXXXXXXXXXXX",
"XXXXXXXXXXXXXXXXXXXXXXXXXXXXXXXX",
"XXXXXXXXXXXXXXXXXXXXXXXXXXXXXXXX",
"XXXXXXXXXX.XXX    XXX.XXXXXXXXXX",
"XXXXXXXXXX.XXX    XXX.XXXXXXXXXX",
"XXXXXXXXXX.XXX    XXX.XXXXXXXXXX",
"XXXXXXXXXX.XXX    XXX.XXXXXXXXXX",
"XXXXXXXXXX.XXX    XXX.XXXXXXXXXX",
"XXXXXXXXXX.XXX    XXX.XXXXXXXXXX",
"XXXXXXXXXX.XXX    XXX.XXXXXXXXXX",
"XXXXXXXXXX.XXX    XXX.XXXXXXXXXX",
"XXXXXXXXXX.XXX    XXX.XXXXXXXXXX",
"XXXXXXXXXX.XXX    XXX.XXXXXXXXXX",
"XXXXXXXXXX.XXX    XXX.XXXXXXXXXX",
"XXXXXXXXXX.XXX    XXX.XXXXXXXXXX",
"XXXXXXXXXX.XXX    XXX.XXXXXXXXXX",
"XXXXXXXXXX.XXX    XXX.XXXXXXXXXX",
"XXXXXXXXXX.XXX    XXX.XXXXXXXXXX",
"XXXXXXXXXX.XXX    XXX.XXXXXXXXXX",
"XXXXXXXXXX.XXX    XXX.XXXXXXXXXX",
"XXXXXXXXXX.XXX    XXX.XXXXXXXXXX",
"XXXXXXXXXX.XXX    XXX.XXXXXXXXXX",
"XXXXXXXXXX.XXX    XXX.XXXXXXXXXX",
"XXXXXXXXXX.XXX    XXX.XXXXXXXXXX",
"XXXXXXXXXX.XXX    XXX.XXXXXXXXXX",
"XXXXXXXXXX.XXX    XXX.XXXXXXXXXX",
"XXXXXXXXXX.XXX    XXX.XXXXXXXXXX",
"XXXXXXXXXXXXXXXXXXXXXXXXXXXXXXXX",
"XXXXXXXXXXXXXXXXXXXXXXXXXXXXXXXX",
"XXXXXXXXXXXXXXXXXXXXXXXXXXXXXXXX",
"XXXXXXXXXXXXXXXXXXXXXXXXXXXXXXXX"
};
