/* XPM */
static char * spcg_ks_saks_xpm[] = {
"32 32 61 1",
" 	c None",
".	c #414141",
"+	c #C0C0C0",
"@	c #828282",
"#	c #000000",
"$	c #020202",
"%	c #1F1F1F",
"&	c #050505",
"*	c #3A3A3A",
"=	c #848484",
"-	c #C8C8C8",
";	c #787878",
">	c #070707",
",	c #7F7F7F",
"'	c #B2B2B2",
")	c #737373",
"!	c #8E8E8E",
"~	c #0A0A0A",
"{	c #525252",
"]	c #111111",
"^	c #2E2E2E",
"/	c #FF0000",
"(	c #FFA1A1",
"_	c #676767",
":	c #ABABAB",
"<	c #6A6A6A",
"[	c #292929",
"}	c #D9D9D9",
"|	c #181818",
"1	c #1A1A1A",
"2	c #7B7B7B",
"3	c #222222",
"4	c #0F0F0F",
"5	c #DDDDDD",
"6	c #434343",
"7	c #242424",
"8	c #5B5B5B",
"9	c #A4A4A4",
"0	c #353535",
"a	c #898989",
"b	c #989898",
"c	c #595959",
"d	c #161616",
"e	c #E9E9E9",
"f	c #575757",
"g	c #D4D4D4",
"h	c #3F3F3F",
"i	c #D1D1D1",
"j	c #EEEEEE",
"k	c #909090",
"l	c #CFCFCF",
"m	c #4D4D4D",
"n	c #A1A1A1",
"o	c #E2E2E2",
"p	c #303030",
"q	c #9A9A9A",
"r	c #CCCCCC",
"s	c #373737",
"t	c #B9B9B9",
"u	c #464646",
"v	c #7D7D7D",
"                                ",
"                                ",
"     .+                         ",
"    @#$          %              ",
"    &#*=         #              ",
"   -#; >         #              ",
"   ,#  #         #              ",
"   ')  #         #              ",
"    , !#   %     ~ ##           ",
"    { ]^   #     &##~& /     /( ",
"    #_#:   #     &# &# /////////",
"    <#[    #     #  ## /     /( ",
"   }|#     #     # ##           ",
"   1#.     ~ ##  ###            ",
"  2#=3     &##~& ~4             ",
"  #% ,+    &# &#                ",
" ,#5=3#6=  #  ##                ",
" 789#0#1#a # ##                 ",
" #b,c # c# ###                  ",
" de,, f  # ~4                   ",
" ,,gh},, #                      ",
" ihji3k, ]                      ",
"  lmnoophl                      ",
"    qc|#r                       ",
"   <:  ~                        ",
"  s##  ;                        ",
"  &##  #                        ",
"  @#= tu                        ",
"   .hv.                         ",
"                                ",
"                                ",
"                                "};
