/* XPM */
static char * spcg_t_ypfm_xpm[] = {
"32 32 7 1",
" 	c None",
".	c #000000",
"+	c #050505",
"@	c #ABABAB",
"#	c #0B0B0B",
"$	c #1E1E1E",
"%	c #FF0000",
"                                ",
"            .                   ",
"            .                   ",
"            .                   ",
"            .                   ",
"            .                   ",
"            +                   ",
"            .                   ",
"            .                   ",
"            .                   ",
"            .      @#####$      ",
"            .                   ",
"         ....                   ",
"        .+..+      @#####$      ",
"       ++....                   ",
"       ....+                    ",
"        ...                     ",
"        %%%                     ",
"         %                      ",
"         %                      ",
"         %                      ",
"         %                      ",
"         %                      ",
"         %                      ",
"         %                      ",
"        %%%                     ",
" ...............................",
" .                              ",
" .                              ",
" .                              ",
" ...............................",
" .                              "};
