/* XPM */
static char *tb_eighthrest[] = {
/* columns rows colors chars-per-pixel */
"21 21 10 1",
"  c black",
". c #040404040404",
"X c gray2",
"o c #060606060606",
"O c gray3",
"+ c #090909090909",
"@ c #0C0C0C0C0C0C",
"# c #111111111111",
"$ c #151515151515",
"% c None",
/* pixels */
"%%%%%%%%%%%%%%%%%%%%%",
"%%%%%%%%%%%%%%%%%%%%%",
"%%%%%%%%%%%%%%%%%%%%%",
"%%%%%%%%%%%%%%%%%%%%%",
"%%%%%%% +%%%%+%%%%%%%",
"%%%%%%#  +%%# %%%%%%%",
"%%%%%% $  %o@%%%%%%%%",
"%%%%%%%+o o% %%%%%%%%",
"%%%%%%%%%%% %%%%%%%%%",
"%%%%%%%%%%% %%%%%%%%%",
"%%%%%%%%%%o%%%%%%%%%%",
"%%%%%%%%%% %%%%%%%%%%",
"%%%%%%%%%o%%%%%%%%%%%",
"%%%%%%%%%o%%%%%%%%%%%",
"%%%%%%%% %%%%%%%%%%%%",
"%%%%%%%% %%%%%%%%%%%%",
"%%%%%%%%%%%%%%%%%%%%%",
"%%%%%%%%%%%%%%%%%%%%%",
"%%%%%%%%%%%%%%%%%%%%%",
"%%%%%%%%%%%%%%%%%%%%%",
"%%%%%%%%%%%%%%%%%%%%%"
};
