/* XPM */
static char *tb_half[] = {
/* columns rows colors chars-per-pixel */
"21 21 14 1",
"  c black",
". c #020202020202",
"X c gray1",
"o c #040404040404",
"O c gray2",
"+ c #060606060606",
"@ c #070707070707",
"# c gray3",
"$ c #090909090909",
"% c gray5",
"& c #0E0E0E0E0E0E",
"* c #111111111111",
"= c gray8",
"- c None",
/* pixels */
"---------------------",
"---------------------",
"------------%--------",
"------------ --------",
"------------O--------",
"------------ --------",
"------------ --------",
"------------O--------",
"------------O--------",
"------------ --------",
"------------O--------",
"------------ --------",
"------------%--------",
"--------* *  --------",
"-------O -- O--------",
"------$ ---$ --------",
"------* --  ---------",
"-------  = ----------",
"---------------------",
"---------------------",
"---------------------"
};
