/* XPM */
static char *tb_halfrest[] = {
/* columns rows colors chars-per-pixel */
"21 21 6 1",
"  c black",
". c gray1",
"X c #040404040404",
"o c #060606060606",
"O c gray4",
"+ c None",
/* pixels */
"+++++++++++++++++++++",
"+++++++++++++++++++++",
"+++++++++++++++++++++",
"+++++++++++++++++++++",
"+++++++++++++++++++++",
"+++++++++++++++++++++",
"+++++++++++++++++++++",
"+++++++++++++++++++++",
"+++++++o  o o++++++++",
"+++++++      ++++++++",
"+++++++ o  o ++++++++",
"++++++ O OO O +++++++",
"+++++++++++++++++++++",
"+++++++++++++++++++++",
"+++++++++++++++++++++",
"+++++++++++++++++++++",
"+++++++++++++++++++++",
"+++++++++++++++++++++",
"+++++++++++++++++++++",
"+++++++++++++++++++++",
"+++++++++++++++++++++"
};
