/* XPM */
static char * tb_mezzopiano_xpm[] = {
"20 20 87 1",
" 	c None",
".	c #676767",
"+	c #000000",
"@	c #7E7E7E",
"#	c #5C5C5C",
"$	c #0A0A0A",
"%	c #191919",
"&	c #CBCBCB",
"*	c #7D7D7D",
"=	c #131313",
"-	c #A5A5A5",
";	c #868686",
">	c #696969",
",	c #767676",
"'	c #121212",
")	c #111111",
"!	c #AAAAAA",
"~	c #373737",
"{	c #141414",
"]	c #6C6C6C",
"^	c #101010",
"/	c #585858",
"(	c #383838",
"_	c #575757",
":	c #555555",
"<	c #0D0D0D",
"[	c #666666",
"}	c #474747",
"|	c #222222",
"1	c #BCBCBC",
"2	c #424242",
"3	c #818181",
"4	c #707070",
"5	c #242424",
"6	c #A6A6A6",
"7	c #CFCFCF",
"8	c #020202",
"9	c #D8D8D8",
"0	c #1E1E1E",
"a	c #DEDEDE",
"b	c #A0A0A0",
"c	c #080808",
"d	c #C9C9C9",
"e	c #0F0F0F",
"f	c #A9A9A9",
"g	c #4E4E4E",
"h	c #E8E8E8",
"i	c #D0D0D0",
"j	c #C2C2C2",
"k	c #353535",
"l	c #9A9A9A",
"m	c #444444",
"n	c #797979",
"o	c #7F7F7F",
"p	c #B8B8B8",
"q	c #3F3F3F",
"r	c #060606",
"s	c #919191",
"t	c #656565",
"u	c #333333",
"v	c #A8A8A8",
"w	c #4A4A4A",
"x	c #AFAFAF",
"y	c #878787",
"z	c #6F6F6F",
"A	c #C3C3C3",
"B	c #323232",
"C	c #606060",
"D	c #525252",
"E	c #A4A4A4",
"F	c #4C4C4C",
"G	c #515151",
"H	c #1A1A1A",
"I	c #DFDFDF",
"J	c #9F9F9F",
"K	c #939393",
"L	c #636363",
"M	c #2F2F2F",
"N	c #1D1D1D",
"O	c #828282",
"P	c #040404",
"Q	c #010101",
"R	c #CDCDCD",
"S	c #272727",
"T	c #BFBFBF",
"U	c #4B4B4B",
"V	c #858585",
"                    ",
"                    ",
"                    ",
"                    ",
"                    ",
"                    ",
" .+@#$%&*=$- ;+>,')!",
" ~+{]%+^/(+_ :+<[}+|",
" $+1 2+@ 3+4 5+6 7+8",
"9+0  %+a :+b +c  d+e",
"f+g h+e  5+ij+k  l+m",
"n+o p+q  +r s+t  u+v",
"w+x y+z A+B C+DEF+G ",
"H+I _+J K+L M+++NO  ",
"            PQ      ",
"           R+S      ",
"           TUV      ",
"                    ",
"                    ",
"                    "};
