/* XPM */
static char * c_xpm[] = {
"10 12 14 1",
" 	c None",
".	c #0A0A0A",
"+	c #000000",
"@	c #0F0F0F",
"#	c #0E0E0E",
"$	c #0C0C0C",
"%	c #060606",
"&	c #070707",
"*	c #010101",
"=	c #1B1B1B",
"-	c #151515",
";	c #050505",
">	c #040404",
",	c #131313",
"    .++@  ",
"  ++    + ",
" +#    +$ ",
" %.   &+.&",
"*+*   ++. ",
"=+&    -  ",
"+++       ",
"*;+      +",
" ++      +",
" %+     # ",
"  >+   ,+ ",
"    ,++   "};
