/* XPM */
static char * treble_E_sharp_xpm[] = {
"120 80 18 1",
" 	c None",
".	c #FFFFFF",
"+	c #ADAEAD",
"@	c #8C8E8C",
"#	c #9C9E9C",
"$	c #000000",
"%	c #5A5D5A",
"&	c #BDBEBD",
"*	c #4A4D4A",
"=	c #DEDFDE",
"-	c #080C08",
";	c #181C18",
">	c #7B7D7B",
",	c #6B6D6B",
"'	c #292C29",
")	c #393C39",
"!	c #EFEFEF",
"~	c #CECFCE",
"........................................................................................................................",
"........................................................................................................................",
"........................................................................................................................",
"........................................................................................................................",
"........................................................................................................................",
"........................................................................................................................",
"........................................................................................................................",
"........................................................................................................................",
".......................+............................................@...................................................",
"......................#$%...........................................$&..................................................",
".....................&$$$+......................................*=..$&..................................................",
".....................-$$$;......................................$&..$&..................................................",
"....................%$$$$$>.......................@.............$&..$&..................................................",
"...................=$$$$*@;.......................$&............$&..$,>.................................................",
"...................@$$$%..;#..................*=..$&............$&=>$$$&................................................",
"...................'$$)...,*..................$&..$&............$)$$$$$&................................................",
"...................$$-=...+$..................$&..$&..........&)$$$$$$*........................@........................",
"..................&$$>....&$+.................$&..$,>.........$$$$$-$+.........................$&.......................",
"..................&$$!....&$>.................$&=>$$$&........$$$;>!$&.....................*=..$&.......................",
"..................&$*.....&$*.................$)$$$$$&........''$&..$&.....................$&..$&.......................",
"..................&$>.....@$)...............&)$$$$$$*...........$&..$&.......@.............$&..$&.......................",
"..................~$+.....%$)...............$$$$$-$+............$&..$&.......$&............$&..$,>......................",
"...................$&.....;$*...............$$$;>!$&............$&..$'-=.*=..$&............$&=>$$$&.....................",
"...................$#....&$$>...............''$&..$&............$&#'$$$&.$&..$&............$)$$$$$&.....................",
".......$$$$$$$$$$$$$$$$$$$$$$$$$$$$$$$$$$$$$$$$$$$$$$$$$$$$$$$$$$$$$$$$$$$$$$$$$$$$$$$$$$$$$$$$$$$$$$$$$$$$$$$$$$.......",
"...................%*...~$$-..................$&..$&.......@!.,-$$$$$;#..$&..$,>!........$$$$$-$+.......................",
"...................@'...)$$,..................$&..$'-=.....$&.$$$$$)$&...$&=>$$$&........$$$;>!$&.......................",
"...................&$!.@$$$=..................$&#'$$$&.*=..$&.$$$*~.$&...$)$$$$$&........''$&..$&.......................",
"....................$+=-$$,..................!$-$$$$$&.$&..$&.@@$&..$&.&)$$$$$$*!..........$&..$&.......................",
"....................),'$$-!.................,-$$$$$;#..$&..$&...$&..$&.$$$$$-$+............$&..$&.......................",
"....................>$$$$+..................$$$$$)$&...$&..$,>!.$&..$&.$$$;>!$&............$&..$'-=.....................",
"....................@$$$%...................$$$*~.$&...$&=>$$$&.$&..*=.''$&..$&............$&#'$$$&.....................",
"...................&$$$'!...................@@$&..$&...$)$$$$$&.$&.......$&..$&...........!$-$$$$$&.....................",
".......$$$$$$$$$$$$$$$$$$$$$$$$$$$$$$$$$$$$$$$$$$$$$$$$$$$$$$$$$$$$$$$$$$$$$$$$$$$$$$$$$$$$$$$$$$$$$$$$$$$$$$$$$$.......",
"..................'$$$;.......................$&..$&.$$$$$-$+............$&..$'-=.....$&.$$$$$)$&.......................",
".................%$$$%$=......................$&..*=.$$$;>!$&............$&#'$$$&.*=..$&.$$$*~.$&.......................",
"................#$$$*.'@......................$&.....''$&..$&...........!$-$$$$$&.$&..$&.@@$&..$&.......................",
"...............=-$$'!.,*......................@!.......$&..$&..........,-$$$$$;#..$&..$&...$&..$&.......................",
"...............)$$-~..+-...............................$&..$&..........$$$$$)$&...$&..$,>!.$&..$&.......................",
"..............#$$$@...!$~..............................$&..$'-=........$$$*~.$&...$&=>$$$&.$&..*=.......................",
"..............;$$).....'@..............................$&#'$$$&........@@$&..$&...$)$$$$$&.$&...........................",
".......$$$$$$$$$$$$$$$$$$$$$$$$$$$$$$$$$$$$$$$$$$$$$$$$$$$$$$$$$$$$$$$$$$$$$$$$$$$$$$$$$$$$$$$$$$$$$$$$$$$$$$$$$$.......",
".............*$$%...+-$$$$$$->.......................,-$$$$$;#...........$&..$&.$$$$$-$+................................",
".............$$$=..#$$$$$$$$$$'!.....................$$$$$)$&............$&..*=.$$$;>!$&................................",
"............&$$*..=-$$-*;)%-$$$'.....................$$$*~.$&............$&.....''$&..$&................................",
"............@$$+..,$$%!.%%..@-$$>....................@@$&..$&............@!.......$&..$&................................",
"............>$$!..'$)...#;...~-$-!.....................$&..$&.....................$&..$&................................",
"............>$;...$$~...~$!...+$$#.....................$&..$&.....................$&..$'-=..............................",
"............@$)...$$.....-+....'$%.....................$&..*=.....................$&#'$$$&..............................",
".......$$$$$$$$$$$$$$$$$$$$$$$$$$$$$$$$$$$$$$$$$$$$$$$$$$$$$$$$$$$$$$$$$$$$$$$$$$$$$$$$$$$$$$$$$$$$$$$$$$$$$$$$$$.......",
".............-'...@$#....>)....&$).....................@!.......................,-$$$$$;#...............................",
".............%$!..!;;!...+-....&$%..............................................$$$$$)$&................................",
".............=$>...~-'=..=$=...#$#..............................................$$$*~.$&................................",
"..............>-=...=)$~..-+...%-!..............................................@@$&..$&................................",
"...............''!....~...)>..~$>.................................................$&..$&................................",
"................''~.......>).!''..................................................$&..$&................................",
".................%$%=.....#;&;'!..................................................$&..*=................................",
"..................&)$'%>>>)$->....................................................$&....................................",
".......$$$$$$$$$$$$$$$$$$$$$$$$$$$$$$$$$$$$$$$$$$$$$$$$$$$$$$$$$$$$$$$$$$$$$$$$$$$$$$$$$$$$$$$$$$$$$$$$$$$$$$$$$$.......",
"...........................;#...........................................................................................",
"...........................)>...........................................................................................",
"................=%)%=......%%...........................................................................................",
"...............~-$$$-~.....>)...........................................................................................",
"...............*$$$$$).....%)...........................................................................................",
"...............$$$$$$$.....))...........................................................................................",
"...............$$$$$$-.....;%...........................................................................................",
"...............;$$$$$>....=$#...........................................................................................",
"...............%$$))#.....>$............................................................................................",
"...............=-$>......~$,............................................................................................",
"................#$$@....&-'.............................................................................................",
".................+;$'>>'$*..............................................................................................",
"...................#%)),~...............................................................................................",
"........................................................................................................................",
"........................................................................................................................",
"........................................................................................................................",
"........................................................................................................................",
"........................................................................................................................",
"........................................................................................................................",
"........................................................................................................................",
"........................................................................................................................"};
