/* XPM */
static char * spcg_amd_sbd_xpm[] = {
"32 32 5 1",
" 	c None",
".	c #000000",
"+	c #050505",
"@	c #A0A0A0",
"#	c #FF0000",
"                                ",
"                                ",
"                                ",
"                                ",
"               .                ",
"               .                ",
"               .                ",
"               .                ",
"               .                ",
"               +                ",
"               .                ",
"               .                ",
"               .                ",
"               .                ",
"               .                ",
"            ....                ",
"           .+..+                ",
"          ++....                ",
"          ....+      ..    ..   ",
"           ...       ..    ..   ",
"                                ",
"                     @     @    ",
"                                ",
"                     @     @    ",
"                                ",
"                     #     #    ",
"                     #######    ",
"                     #     #    ",
"                                ",
"                                ",
"                                ",
"                                "};
