/* XPM */
static char * tb_paren_xpm[] = {
"21 21 2 1",
" 	c None",
".	c #000000",
"                     ",
"                     ",
"      .       .      ",
"      .       .      ",
"     ..       ..     ",
"     .         .     ",
"    ..         ..    ",
"    ..         ..    ",
"    .           .    ",
"    .           .    ",
"    .           .    ",
"    .           .    ",
"    ..         ..    ",
"    ..         ..    ",
"     .         .     ",
"     ..       ..     ",
"      .       .      ",
"      .       .      ",
"                     ",
"                     ",
"                     "};
