/* XPM */
static char *tb_stemup[] = {
/* columns rows colors chars-per-pixel */
"21 21 9 1",
"  c black",
". c gray1",
"X c #040404040404",
"o c #090909090909",
"O c gray4",
"+ c #0B0B0B0B0B0B",
"@ c #101010101010",
"# c red",
"$ c None",
/* pixels */
"$$$$$$$$$$$$$$$$$$$$$",
"$$$$$$$$$$$$$$$$$$$$$",
"$$$$$$$$$$$#$$$$$$$$$",
"$$$$$$$$$$###$$$$$$$$",
"$$$$$$$$$#####$$$$$$$",
"$$$$$$$$$$$#$$$$$$$$$",
"$$$$$$$$$$$#$$$$$$$$$",
"$$$$$$$$$$$#$$$$$$$$$",
"$$$$$$$$$$$#$$$$$$$$$",
"$$$$$$$$$$$#$$$$$$$$$",
"$$$$$$$$$$$#$$$$$$$$$",
"$$$$$$$$$$$#$$$$$$$$$",
"$$$$$$$$$$$#$$$$$$$$$",
"$$$$$$$$ o #$$$$$$$$$",
"$$$$$$$X  o#$$$$$$$$$",
"$$$$$$ X  X#$$$$$$$$$",
"$$$$$$  X @$$$$$$$$$$",
"$$$$$$$o +$$$$$$$$$$$",
"$$$$$$$$$$$$$$$$$$$$$",
"$$$$$$$$$$$$$$$$$$$$$",
"$$$$$$$$$$$$$$$$$$$$$"
};
