/* XPM */
static char * treble_D_flat_xpm[] = {
"120 80 19 1",
" 	c None",
".	c #FFFFFF",
"+	c #ADAEAD",
"@	c #9C9E9C",
"#	c #000000",
"$	c #5A5D5A",
"%	c #BDBEBD",
"&	c #FDFDFD",
"*	c #080C08",
"=	c #181C18",
"-	c #7B7D7B",
";	c #DEDFDE",
">	c #4A4D4A",
",	c #8C8E8C",
"'	c #292C29",
")	c #393C39",
"!	c #6B6D6B",
"~	c #EFEFEF",
"{	c #CECFCE",
"........................................................................................................................",
"........................................................................................................................",
"........................................................................................................................",
"........................................................................................................................",
"........................................................................................................................",
"........................................................................................................................",
"........................................................................................................................",
"........................................................................................................................",
".......................+................................................................................................",
"......................@#$...............................................................................................",
".....................%###+..............................................................................................",
"....................&*###=&.............................................................................................",
"....................$#####-.............................................................................................",
"...................;####>,=........................,,...................................................................",
"...................,###$..=@.......................##...................................................................",
"...................'##)...!>.......................==...................................................................",
"...................##*;...+#&......................))...................................................................",
"..................%##-....%#+......................))..............,,...................................................",
"..................%##~....%#-......................))..............##...................................................",
"..................%#>.....%#>......................))..............==...................................................",
"..................%#-.....,#)......................))..............))...................................................",
"..................{#+.....$#)......................))..............))...................................................",
"...................#%.....=#>......................))..............))...................................................",
"...................#@....%##-......................))..%{..........))...................................................",
".......##########################################################################################################.......",
"...................$>...{##*.......................)######-........))...................................................",
"...................,'...)##!................,,.....)#%.,##)........))...................................................",
"...................%#~.,###;................##.....!)...'#$........))..%{...............................................",
"....................#+;*##!.................==.....-)...'#;........))-*##)~.............................................",
"....................)!'##*~.................)).....-)..%#@.........)######-.............................................",
"....................-####+..................)).....-).{*@..,,......)#%.,##).............................................",
"....................,###$...................)).....-'+={...##......!)...'#$.............................................",
"...................%###'~...................)).....-#*{....==......-)...'#;.............................................",
".......##########################################################################################################.......",
".................&'###=.....................)).....~;......))......-).{*@...............................................",
".................$###$#;....................)).............))......-'+={................................................",
"................@###>.',....................))..%{.........))......-#*{.................................................",
"...............;*##'~.!>....................))-*##)~.......))......-*{..................................................",
"...............)##*{..+*....................)######-.......))......~;...................................................",
"..............@###,...~#{...................)#%.,##).......))...........................................................",
"..............=##).....',...................!)...'#$.......))..%{.......................................................",
".......##########################################################################################################.......",
".............>##$...+*######*-..............-)..%#@........)######-.....................................................",
"............&###;..@##########'~............-).{*@.........)#%.,##).....................................................",
"............%##>..;*##*>=)$*###'............-'+={..........!)...'#$.....................................................",
"............,##+..!##$~.$$..,*##-...........-#*{...........-)...'#;.....................................................",
"............-##~..'#)...@=...{*#*~..........-*{............-)..%#@......................................................",
"............-#=...##{...{#~...+##@..........~;.............-).{*@.......................................................",
"............,#)...##.....*+....'#$.........................-'+={........................................................",
".......##########################################################################################################.......",
".............*'...,#@....-)....%#).........................-*{..........................................................",
".............$#~..~==~...+*....%#$.........................~;...........................................................",
".............;#-...{*';..;#;...@#@......................................................................................",
"..............-*;...;)#{..*+...$*~......................................................................................",
"...............''~....{...)-..{#-.......................................................................................",
"...............&''{.......-).~''........................................................................................",
"................&$#$;.....@=%='~........................................................................................",
"..................%)#'$---)#*-..........................................................................................",
".......##########################################################################################################.......",
"...........................=@...........................................................................................",
"...........................)-...........................................................................................",
"................;$)$;......$$...........................................................................................",
"...............{*###*{.....-)...........................................................................................",
"...............>#####).....$)...........................................................................................",
"...............#######.....))...........................................................................................",
"...............######*.....=$...........................................................................................",
"...............=#####-....;#@...........................................................................................",
"...............$##))@.....-#&...........................................................................................",
"...............;*#-......{#!............................................................................................",
"................@##,....%*'&............................................................................................",
".................+=#'--'#>&.............................................................................................",
"...................@$))!{...............................................................................................",
"........................................................................................................................",
"........................................................................................................................",
"........................................................................................................................",
"........................................................................................................................",
"........................................................................................................................",
"........................................................................................................................",
"........................................................................................................................",
"........................................................................................................................"};
