/* XPM */
static char * alla_breve_xpm[] = {
"16 26 31 1",
" 	c None",
".	c #737173",
"+	c #ADAAAD",
"@	c #292829",
"#	c #7B7D7B",
"$	c #C6C7C6",
"%	c #181C18",
"&	c #393C39",
"*	c #BDBABD",
"=	c #101410",
"-	c #000400",
";	c #424542",
">	c #9C9E9C",
",	c #D6D7D6",
"'	c #212021",
")	c #000000",
"!	c #080C08",
"~	c #E7E3E7",
"{	c #6B696B",
"]	c #DEDFDE",
"^	c #5A5D5A",
"/	c #525552",
"(	c #EFEBEF",
"_	c #A5A2A5",
":	c #CECFCE",
"<	c #7B797B",
"[	c #393839",
"}	c #B5B2B5",
"|	c #949694",
"1	c #8C8E8C",
"2	c #BDBEBD",
"       .+       ",
"       @#       ",
"       @#       ",
"      $%&#*     ",
"    #=--&#;=>   ",
"  ,')!,@#  ~&{  ",
" ~=))# @# ]^')+ ",
" /)))$ @# =)))' ",
",))))( @#_))))):",
"<))))  @##)))))+",
"[))))  @#})))))]",
"=))))  @# ;))). ",
")))))  @#  }#*  ",
")))))  @#       ",
"=))))  @#       ",
"[))))  @#       ",
"<))))  @#     |1",
",))))( @#     []",
" /)))$ @#    2& ",
" ~=))# @#   (': ",
"  ,')!,@#  :@|  ",
"    #=--&#&%+   ",
"      2%&#*     ",
"       @#       ",
"       @#       ",
"       .+       "};
