/* XPM */
static char * spcg_ac_sbaon_xpm[] = {
"32 32 8 1",
" 	c None",
".	c #1F1F1F",
"+	c #000000",
"@	c #0A0A0A",
"#	c #050505",
"$	c #0F0F0F",
"%	c #A0A0A0",
"&	c #FF0000",
"                                ",
"                                ",
"                                ",
"           .           +        ",
"           +           +        ",
"           +           +        ",
"           +           +        ",
"           +           +        ",
"    .      @ ++        #        ",
"    +      #++@#       + +++    ",
"    +      #+ #+       +#++++   ",
"    +      +  ++       ++++##   ",
"    +      + ++        +++#+    ",
"    @ ++   +++         ++++     ",
"    #++@#  @$       ++++        ",
"    #+ #+  %       +#++#        ",
"    +  ++         ##++++        ",
"    + ++   %      ++++#         ",
"    +++            +++          ",
"    @$     %                    ",
"                                ",
"    %      %                    ",
"                                ",
"    %      %                    ",
"                                ",
"    %      %                    ",
"    &      &                    ",
"    &&&&&&&&                    ",
"    &      &                    ",
"                                ",
"                                ",
"                                "};
