/* XPM */
static char * spcg_ks_sbks_xpm[] = {
"32 32 61 1",
" 	c #FFFFFF",
".	c #1F1F1F",
"+	c #414141",
"@	c #C0C0C0",
"#	c #000000",
"$	c #828282",
"%	c #020202",
"&	c #050505",
"*	c #3A3A3A",
"=	c #848484",
"-	c #C8C8C8",
";	c #787878",
">	c #070707",
",	c #7F7F7F",
"'	c #0A0A0A",
")	c #B2B2B2",
"!	c #737373",
"~	c #8E8E8E",
"{	c #525252",
"]	c #111111",
"^	c #2E2E2E",
"/	c #676767",
"(	c #ABABAB",
"_	c #6A6A6A",
":	c #292929",
"<	c #D9D9D9",
"[	c #181818",
"}	c #0F0F0F",
"|	c #1A1A1A",
"1	c #7B7B7B",
"2	c #222222",
"3	c #DDDDDD",
"4	c #434343",
"5	c #242424",
"6	c #5B5B5B",
"7	c #A4A4A4",
"8	c #353535",
"9	c #898989",
"0	c #989898",
"a	c #595959",
"b	c #A0A0A0",
"c	c #161616",
"d	c #E9E9E9",
"e	c #575757",
"f	c #D4D4D4",
"g	c #3F3F3F",
"h	c #D1D1D1",
"i	c #EEEEEE",
"j	c #909090",
"k	c #CFCFCF",
"l	c #4D4D4D",
"m	c #A1A1A1",
"n	c #E2E2E2",
"o	c #303030",
"p	c #9A9A9A",
"q	c #CCCCCC",
"r	c #373737",
"s	c #B9B9B9",
"t	c #464646",
"u	c #7D7D7D",
"v	c #FF0000",
"                                ",
"                          .     ",
"     +@                   #     ",
"    $#%                   #     ",
"    &#*=                  #     ",
"   -#; >                  #     ",
"   ,#  #           .      ' ##  ",
"   )!  #           #      &##'& ",
"    , ~#           #      &# &# ",
"    { ]^           #      #  ## ",
"    #/#(           #      # ##  ",
"    _#:            ' ##   ###   ",
"   <[#             &##'&  '}    ",
"   |#+             &# &#        ",
"  1#=2             #  ##        ",
"  #. ,@            # ##         ",
" ,#3=2#4=          ###          ",
" 567#8#|#9         '}           ",
" #0,a # a#         b            ",
" cd,, e  #                      ",
" ,,fg<,, #         b            ",
" hgih2j, ]                      ",
"  klmnnogk         b            ",
"    pa[#q                       ",
"   _(  ' b         b            ",
"  r##  ;                        ",
"  &##  # b         b            ",
"  $#= st                        ",
"   +gu+  v         v            ",
"         vvvvvvvvvvv            ",
"         v         v            ",
"                                "};
