/* XPM */
static char * spcg_m_xpsfm_xpm[] = {
"32 32 3 1",
" 	c None",
".	c #000000",
"+	c #FF0000",
"                                ",
"                                ",
"                                ",
"                                ",
"                                ",
"                                ",
"                                ",
"                                ",
"                                ",
"                                ",
"                                ",
"         .......................",
"         .                      ",
"         .                      ",
"         .                      ",
"         .......................",
"         .                      ",
"         .                      ",
"+       +.                      ",
"+++++++++.......................",
"+       +.                      ",
"         .                      ",
"         .                      ",
"         .......................",
"         .                      ",
"         .                      ",
"         .                      ",
"         .......................",
"                                ",
"                                ",
"                                ",
"                                "};
