/* XPM */
static char * tb_barline_closerepeat_xpm[] = {
"22 22 2 1",
" 	c None",
".	c #000000",
"                      ",
"                      ",
"          . ..        ",
"          . ..        ",
"          . ..        ",
"          . ..        ",
"          . ..        ",
"          . ..        ",
"          . ..        ",
"        . . ..        ",
"          . ..        ",
"          . ..        ",
"        . . ..        ",
"          . ..        ",
"          . ..        ",
"          . ..        ",
"          . ..        ",
"          . ..        ",
"          . ..        ",
"          . ..        ",
"                      ",
"                      "};
