/* XPM */
static char * tb_doublesharp_xpm[] = {
"16 16 2 1",
" 	c None",
".	c #000000",
"                ",
"                ",
"                ",
"                ",
"     ... ...    ",
"     ... ...    ",
"     ... ...    ",
"      .....     ",
"      .....     ",
"     ... ...    ",
"     ... ...    ",
"     ... ...    ",
"                ",
"                ",
"                ",
"                "};
