/* XPM */
static char *tb_eighth[] = {
/* columns rows colors chars-per-pixel */
"21 21 7 1",
"  c black",
". c #040404040404",
"X c #0B0B0B0B0B0B",
"o c #0C0C0C0C0C0C",
"O c #101010101010",
"+ c #191919191919",
"@ c None",
/* pixels */
"@@@@@@@@@@@@@@@@@@@@@",
"@@@@@@@@@@@@@@@@@@@@@",
"@@@@@@@@@@@@@@@@@@@@@",
"@@@@@@@@@@@o@@@@@@@@@",
"@@@@@@@@@@@  @@@@@@@@",
"@@@@@@@@@@@O. @@@@@@@",
"@@@@@@@@@@@  .@@@@@@@",
"@@@@@@@@@@@ . X@@@@@@",
"@@@@@@@@@@@.   @@@@@@",
"@@@@@@@@@@@X@O X@@@@@",
"@@@@@@@@@@@ @@ o@@@@@",
"@@@@@@@@@@@+@@  @@@@@",
"@@@@@@@@@@@ @@@ @@@@@",
"@@@@@@@@@@@ @@@ @@@@@",
"@@@@@@@@ o  @@@X@@@@@",
"@@@@@@@.. X @@@@@@@@@",
"@@@@@@ .  . @@@@@@@@@",
"@@@@@@    O@@@@@@@@@@",
"@@@@@@@X X@@@@@@@@@@@",
"@@@@@@@@@@@@@@@@@@@@@",
"@@@@@@@@@@@@@@@@@@@@@"
};
