/* XPM */
static char *tb_flat[] = {
/* columns rows colors chars-per-pixel */
"21 21 6 1",
"  c black",
". c gray2",
"X c gray4",
"o c gray6",
"O c gray12",
"+ c None",
/* pixels */
"+++++++++++++++++++++",
"+++++++++++++++++++++",
"+++++++++++++++++++++",
"+++++++++++++++++++++",
"+++++++O+++++++++++++",
"+++++++ +++++++++++++",
"+++++++ +++++++++++++",
"+++++++ +++++++++++++",
"+++++++ +++++++++++++",
"+++++++X+  ++++++++++",
"+++++++.  X.+++++++++",
"+++++++. +. +++++++++",
"+++++++ ++  +++++++++",
"+++++++ +  ++++++++++",
"+++++++   +++++++++++",
"+++++++Xo++++++++++++",
"+++++++++++++++++++++",
"+++++++++++++++++++++",
"+++++++++++++++++++++",
"+++++++++++++++++++++",
"+++++++++++++++++++++"
};
