/* XPM */
static char * tb_mezzoforte_xpm[] = {
"20 20 72 1",
" 	c None",
".	c #E2E2E2",
"+	c #CECECE",
"@	c #262626",
"#	c #000000",
"$	c #EAEAEA",
"%	c #222222",
"&	c #010101",
"*	c #C6C6C6",
"=	c #C4C4C4",
"-	c #353535",
";	c #676767",
">	c #7E7E7E",
",	c #5C5C5C",
"'	c #0A0A0A",
")	c #191919",
"!	c #CBCBCB",
"~	c #7D7D7D",
"{	c #131313",
"]	c #A5A5A5",
"^	c #C7C7C7",
"/	c #272727",
"(	c #373737",
"_	c #141414",
":	c #6C6C6C",
"<	c #101010",
"[	c #585858",
"}	c #383838",
"|	c #575757",
"1	c #E0E0E0",
"2	c #363636",
"3	c #6A6A6A",
"4	c #BFBFBF",
"5	c #BCBCBC",
"6	c #424242",
"7	c #818181",
"8	c #707070",
"9	c #2B2B2B",
"0	c #D8D8D8",
"a	c #1E1E1E",
"b	c #DEDEDE",
"c	c #555555",
"d	c #A0A0A0",
"e	c #030303",
"f	c #A9A9A9",
"g	c #4E4E4E",
"h	c #E8E8E8",
"i	c #0F0F0F",
"j	c #242424",
"k	c #D0D0D0",
"l	c #797979",
"m	c #7F7F7F",
"n	c #B8B8B8",
"o	c #3F3F3F",
"p	c #060606",
"q	c #9B9B9B",
"r	c #5B5B5B",
"s	c #4A4A4A",
"t	c #AFAFAF",
"u	c #878787",
"v	c #6F6F6F",
"w	c #C3C3C3",
"x	c #323232",
"y	c #6B6B6B",
"z	c #8B8B8B",
"A	c #1A1A1A",
"B	c #DFDFDF",
"C	c #9F9F9F",
"D	c #939393",
"E	c #636363",
"F	c #3B3B3B",
"G	c #BBBBBB",
"                    ",
"                    ",
"                    ",
"                 .. ",
"               +@##$",
"               %&*  ",
"              =#-   ",
"  ;#>,')!~{']^###/  ",
"  (#_:)#<[}#|12#34  ",
"  '#5 6#> 7#8 9#!   ",
" 0#a  )#b c#d ee    ",
" f#g h#i  j#k!#9    ",
" l#m n#o  #p q#r    ",
" s#t u#v w#x y#z    ",
" A#B |#C D#E F#G    ",
"                    ",
"                    ",
"                    ",
"                    ",
"                    "};
