/* XPM */
static char * tb_marcato_xpm[] = {
"22 22 6 1",
" 	c None",
".	c #FF0000",
"+	c #010101",
"@	c #000000",
"#	c #030303",
"$	c #050505",
"          .           ",
"          ..          ",
"         . ..         ",
"         .  ..        ",
"        .    .        ",
"                      ",
"             +        ",
"             +        ",
"             +        ",
"             +        ",
"             +        ",
"             +        ",
"             +        ",
"             +        ",
"             +        ",
"             +        ",
"             +        ",
"          @@++        ",
"         @#+++        ",
"        $+@++@        ",
"        @++++         ",
"         +@@          "};
